<svg width="400" height="400" viewBox="0 0 400 400" fill="none" xmlns="http://www.w3.org/2000/svg">
<g clip-path="url(#clip0_9_545)">
<path fill-rule="evenodd" clip-rule="evenodd" d="M196.414 59.96C196.091 60.176 194.619 60.263 193.143 60.151C191.667 60.04 189.411 60.157 188.129 60.412C186.848 60.667 185.08 60.921 184.2 60.977C181.694 61.136 178.797 61.589 176.4 62.196C175.19 62.502 172.85 63.038 171.2 63.387C167.359 64.2 165.179 64.785 164.305 65.239C163.923 65.438 163.316 65.6 162.956 65.6C162.033 65.6 152.473 69.104 151.46 69.813C150.999 70.136 150.346 70.4 150.009 70.4C149.283 70.4 143.909 72.967 140.815 74.791C139.614 75.499 137.454 76.716 136.015 77.494C134.577 78.272 132.494 79.581 131.386 80.402C130.278 81.224 128.658 82.264 127.786 82.713C126.914 83.163 125.778 83.929 125.262 84.416C124.067 85.545 118.914 89.608 117.6 90.458C115.663 91.712 103.068 104.618 101.653 106.8C101.296 107.35 100.635 108.099 100.184 108.464C99.733 108.83 99.016 109.775 98.591 110.564C98.166 111.354 97.702 112 97.559 112C97.417 112 96.351 113.485 95.191 115.3C94.03 117.115 92.748 119.088 92.34 119.684C91.933 120.28 91.6 120.955 91.6 121.184C91.6 121.413 91.437 121.6 91.238 121.6C90.818 121.6 88.718 125.142 87.088 128.6C86.466 129.92 85.791 131.27 85.587 131.6C84.982 132.579 83.2 136.399 83.2 136.718C83.2 136.88 82.864 137.639 82.453 138.406C82.043 139.173 81.571 140.42 81.405 141.177C81.238 141.935 80.897 142.76 80.645 143.012C80.394 143.263 79.477 145.613 78.609 148.234C77.74 150.855 77.017 153.036 77.001 153.08C76.931 153.279 61.98 153.526 35.851 153.759L7.501 154.011L6.557 154.906C5.367 156.034 5.226 159.305 6.309 160.674C7.584 162.287 12.051 162.453 50.629 162.321C83.915 162.208 86.303 162.154 86.956 161.501C87.707 160.751 88.058 159.782 89.175 155.387C89.568 153.84 90.184 152.004 90.545 151.307C90.905 150.61 91.2 149.788 91.2 149.481C91.2 149.174 91.453 148.4 91.762 147.761C93.583 143.994 95.207 140 94.918 140C94.785 140 94.957 139.685 95.3 139.3C95.643 138.915 96.773 136.824 97.811 134.654C98.85 132.483 100.397 129.657 101.25 128.373C102.102 127.089 102.8 125.961 102.8 125.865C102.8 125.521 106.177 120.568 107.375 119.156C108.049 118.361 109.5 116.567 110.6 115.167C114.4 110.333 119.299 105.362 126.275 99.263C128.076 97.689 129.658 96.4 129.789 96.4C129.921 96.4 131.597 95.251 133.514 93.846C138.328 90.318 145.327 86.169 150.8 83.598C153.33 82.409 155.583 81.227 155.806 80.971C156.029 80.715 156.839 80.369 157.606 80.204C158.373 80.038 159.63 79.595 160.4 79.218C161.17 78.842 163.69 77.958 166 77.254C168.31 76.55 170.753 75.8 171.428 75.587C172.104 75.374 173.099 75.2 173.639 75.2C174.18 75.2 175.006 74.931 175.476 74.602C175.946 74.272 176.751 74.021 177.265 74.043C177.779 74.064 179.64 73.868 181.4 73.605C183.16 73.343 185.965 72.994 187.633 72.83C189.301 72.665 190.89 72.391 191.165 72.222C191.857 71.794 211.137 71.92 213.489 72.367C214.54 72.567 217.02 72.935 219 73.186C220.98 73.436 223.95 73.909 225.6 74.238C227.25 74.566 228.96 74.885 229.4 74.946C229.84 75.008 230.56 75.252 231 75.489C231.44 75.727 232.657 76.05 233.705 76.207C234.753 76.364 235.708 76.652 235.829 76.846C235.949 77.041 236.39 77.2 236.81 77.2C237.23 77.2 238.164 77.449 238.886 77.753C239.609 78.057 241.19 78.617 242.4 78.999C243.61 79.38 245.394 80.061 246.364 80.513C247.334 80.964 248.414 81.333 248.764 81.332C249.114 81.331 249.58 81.557 249.8 81.834C251.443 83.902 254.887 84.476 265.885 84.514C277.803 84.556 278.295 84.44 275.114 82.329C270.989 79.593 264.373 75.6 263.963 75.6C263.734 75.6 262.957 75.15 262.236 74.6C261.514 74.05 260.791 73.6 260.627 73.6C260.463 73.6 258.64 72.789 256.576 71.799C248.117 67.739 236.025 63.618 232.533 63.605C231.837 63.602 231.195 63.386 231.108 63.124C231.021 62.862 230.24 62.629 229.372 62.608C228.505 62.586 227.614 62.456 227.392 62.319C226.84 61.978 219.639 60.815 218.4 60.867C217.85 60.89 216.5 60.722 215.4 60.495C212.539 59.904 197.142 59.47 196.414 59.96ZM338.8 69.837C338.47 69.915 335.667 70.029 332.571 70.089C327.162 70.196 325.6 70.564 325.6 71.731C325.6 71.835 325.015 72.527 324.3 73.268C317.1 80.737 312.595 85.572 312.063 86.4C311.71 86.95 310.607 88.219 309.611 89.22C308.615 90.22 306.45 92.553 304.8 94.403C303.15 96.253 300.36 99.259 298.6 101.082L295.4 104.397L267.518 104.432C243.433 104.462 239.483 104.384 238.518 103.865C232.746 100.763 216.114 96.649 209.959 96.801C208.772 96.83 206.27 96.74 204.4 96.601C200.792 96.333 190.61 96.898 186.6 97.589C179.886 98.747 177.958 99.183 177.322 99.685C176.907 100.012 174.784 100.635 171.2 101.483C170.65 101.613 169.787 102.04 169.281 102.432C168.776 102.824 167.819 103.264 167.154 103.41C166.49 103.556 165.463 103.927 164.873 104.235C164.283 104.543 163.571 104.796 163.292 104.798C163.013 104.799 162.113 105.222 161.292 105.738C160.471 106.253 159.08 107.012 158.2 107.423C155.49 108.689 151.93 110.882 149 113.089C147.46 114.249 145.66 115.604 145 116.099C141.698 118.578 137.057 122.666 135.932 124.086C134.673 125.676 132.979 127.631 130.492 130.363C129.773 131.153 128.424 132.97 127.495 134.4C126.566 135.83 125.474 137.36 125.068 137.8C124.662 138.24 123.965 139.32 123.519 140.2C123.072 141.08 122.476 142.07 122.195 142.4C121.19 143.577 117.708 150.694 116.996 153.027C116.597 154.332 116.063 155.67 115.809 156C115.418 156.509 114.758 158.438 112.39 166C111.815 167.836 111.256 170.57 110.796 173.8C110.546 175.56 110.185 177.81 109.995 178.8C109.017 183.892 109.293 200.466 110.377 201.772C110.645 202.095 110.821 202.864 110.768 203.48C110.605 205.386 111.272 210.015 111.784 210.527C112.051 210.794 112.392 212.18 112.54 213.607C112.825 216.354 115.327 224.108 116.001 224.333C116.221 224.407 116.4 224.739 116.4 225.073C116.4 225.724 117.224 227.739 118.415 230C118.82 230.77 119.702 232.536 120.375 233.925C121.047 235.313 122.048 237.04 122.599 237.763C123.149 238.485 123.6 239.284 123.6 239.538C123.6 239.792 123.915 240.316 124.3 240.701C124.685 241.087 125.832 242.662 126.848 244.201C128.884 247.283 134.903 254.223 138 257.059C138.33 257.361 139.77 258.707 141.2 260.051C142.63 261.394 144.79 263.146 146 263.945C147.21 264.744 148.29 265.516 148.4 265.66C148.736 266.1 155.274 270.455 155.959 270.694C156.312 270.818 157.14 271.298 157.8 271.763C159.569 273.008 162.043 274.26 163.34 274.566C163.967 274.714 164.965 275.194 165.558 275.632C166.519 276.342 169.134 277.257 172 277.885C172.55 278.006 173.27 278.327 173.6 278.6C174.171 279.071 175.652 279.522 177.4 279.756C177.84 279.815 178.47 279.979 178.8 280.121C179.928 280.605 186.669 282.134 190.446 282.761C193.784 283.315 208.305 283.334 212.123 282.79C217.457 282.029 220.196 281.496 221 281.061C221.44 280.823 222.25 280.607 222.8 280.581C224.402 280.506 230.187 278.826 230.333 278.394C230.407 278.177 230.862 278 231.345 278C232.79 278 240.463 274.615 245.724 271.656L248.047 270.35L249.524 271.685C250.336 272.42 260.284 282.307 271.63 293.657L292.261 314.294L304.73 314.332C311.802 314.354 317.2 314.216 317.2 314.013C317.2 313.649 313.381 309.673 311.589 308.171C311.045 307.715 309.61 306.193 308.4 304.788C305.914 301.904 304.509 300.457 300.794 296.956C299.367 295.612 297.312 293.542 296.227 292.356C293.567 289.451 278.262 273.945 271.148 266.948C267.986 263.839 263.344 259.204 260.83 256.648C258.317 254.091 256.136 252 255.984 252C255.831 252 255.23 251.28 254.647 250.4C254.065 249.52 253.321 248.8 252.994 248.8C252.667 248.8 252.4 248.628 252.4 248.417C252.4 248.207 248.972 244.6 244.782 240.403L237.164 232.771L235.99 233.607C235.344 234.067 234.677 234.659 234.508 234.922C234.179 235.432 230.536 238 230.141 238C230.011 238 228.891 238.602 227.652 239.337C215.512 246.544 197.606 247.99 183.8 242.879C171.161 238.2 158.933 227.139 152.79 214.828C151.916 213.076 151.2 211.457 151.2 211.232C151.2 211.007 150.77 209.851 150.245 208.662C149.392 206.734 148.94 204.895 147.577 197.8C147.058 195.098 147.035 182.758 147.546 181.116C148.128 179.247 149.303 173.531 149.275 172.708C149.262 172.327 149.419 171.912 149.625 171.784C149.831 171.657 150 171.113 150 170.576C150 170.039 150.177 169.6 150.392 169.6C150.608 169.6 150.906 169.105 151.055 168.5C152.192 163.865 158.812 153.566 163.878 148.552C166.233 146.22 174.661 139.755 175.176 139.886C175.362 139.933 175.949 139.573 176.481 139.086C177.545 138.112 178.709 137.595 183.2 136.101C184.85 135.552 186.65 134.911 187.2 134.676C190.807 133.137 190.945 133.133 245.089 132.862L297.578 132.6L300.82 129.2C302.604 127.33 304.29 125.486 304.568 125.101C305.208 124.217 311.719 117.142 315.4 113.333C317.981 110.662 320.432 108.004 323.357 104.705C323.993 103.987 327.052 100.7 330.154 97.4C333.257 94.1 336.967 90.151 338.398 88.625C339.829 87.098 341.54 85.281 342.2 84.586C347.691 78.803 351.421 74.637 351.529 74.164C351.6 73.854 351.906 73.6 352.209 73.6C352.8 73.6 354.8 71.205 354.8 70.497C354.8 69.802 341.304 69.245 338.8 69.837ZM220.6 131.6C220.462 131.823 218.596 132 216.376 132C213.992 132 212.4 131.84 212.4 131.6C212.4 131.359 214.075 131.2 216.624 131.2C219.337 131.2 220.759 131.343 220.6 131.6ZM12.818 179.634C7.396 180.049 6.931 180.187 6.207 181.586C4.961 183.996 5.835 187.362 7.995 188.477C9.269 189.133 38.943 189.402 64.666 188.99L82.331 188.707L83.527 187.042C84.986 185.01 84.931 182.238 83.402 180.802C81.886 179.378 27.836 178.484 12.818 179.634ZM16.8 200.753C13.61 201.438 10 204.387 10 206.307C10 206.61 9.73 207.127 9.4 207.457C8.464 208.393 8.605 212.794 9.641 214.999C13.149 222.46 23.267 223.606 27.58 217.03L28.203 216.081L51.401 215.94L74.6 215.8L74.727 216.9C74.796 217.505 75.021 218 75.227 218C75.432 218 75.608 218.675 75.617 219.5C75.635 221.022 76.001 222.984 76.773 225.7C77.008 226.525 77.367 227.856 77.571 228.659C77.775 229.461 78.109 230.226 78.313 230.359C78.518 230.491 78.81 231.32 78.964 232.2C79.314 234.209 81.221 239.2 81.638 239.2C81.81 239.2 81.929 239.515 81.902 239.9C81.816 241.155 88.4 254.821 89.948 256.6C90.331 257.04 91.063 258.247 91.576 259.282C92.088 260.318 92.824 261.505 93.211 261.92C93.598 262.335 94.23 263.288 94.614 264.038C94.999 264.787 95.963 266.258 96.757 267.307C99.717 271.217 102.101 274.23 103.004 275.2C103.515 275.75 105.397 277.862 107.185 279.892C108.973 281.923 111.452 284.443 112.694 285.492C113.936 286.542 115.683 288.091 116.576 288.936C117.469 289.781 119.01 291.029 120 291.709C120.99 292.389 122.507 293.543 123.372 294.273C124.237 295.003 125.162 295.6 125.429 295.6C125.696 295.6 126.014 295.859 126.135 296.175C126.399 296.863 132.558 301.059 135.469 302.534C136.607 303.11 138.192 304.026 138.991 304.568C141.431 306.224 149.09 310.005 152.496 311.235C154.266 311.874 155.913 312.561 156.157 312.762C156.401 312.963 158.13 313.609 160 314.197C161.87 314.785 163.694 315.419 164.053 315.607C164.412 315.795 166.122 316.235 167.853 316.585C169.584 316.936 171.644 317.473 172.43 317.78C173.217 318.087 175.197 318.456 176.83 318.599C178.464 318.743 180.61 319.108 181.6 319.411C185.647 320.647 209.811 321.377 215.6 320.438C216.81 320.241 219.42 319.858 221.4 319.586C223.38 319.313 225.36 318.872 225.8 318.605C226.24 318.339 227.77 317.993 229.2 317.837C230.63 317.682 232.43 317.395 233.2 317.201C233.97 317.006 235.5 316.626 236.6 316.356C237.7 316.086 239.227 315.535 239.994 315.132C240.761 314.73 241.751 314.4 242.194 314.4C245.08 314.399 266.09 304.426 266.314 302.95C266.471 301.919 259.145 294.8 257.927 294.8C257.442 294.8 255.685 295.445 254.023 296.234C252.36 297.023 249.898 298.193 248.551 298.834C247.204 299.475 245.924 300 245.706 300C245.489 300 244.161 300.515 242.755 301.144C241.35 301.774 239.705 302.407 239.1 302.552C238.495 302.697 238 302.992 238 303.208C238 303.423 237.481 303.6 236.846 303.6C236.211 303.6 234.726 303.884 233.546 304.231C231.194 304.923 229.197 305.437 227.5 305.788C226.895 305.913 226.4 306.167 226.4 306.352C226.4 306.537 225.95 306.603 225.401 306.498C224.836 306.39 223.952 306.602 223.368 306.984C222.8 307.356 222.081 307.563 221.769 307.444C221.458 307.324 220.257 307.39 219.101 307.59C205.117 310.011 187.998 309.241 174.2 305.572C170.951 304.708 169.346 304.329 167.1 303.893C165.835 303.648 164.8 303.324 164.8 303.172C164.8 303.021 162.955 302.29 160.7 301.548C158.445 300.807 156.474 300.007 156.32 299.772C156.167 299.536 154.997 299.004 153.72 298.589C152.444 298.173 151.13 297.64 150.8 297.404C149.517 296.486 146.86 295.2 146.246 295.2C145.89 295.2 145.6 295.04 145.6 294.843C145.6 294.647 145.15 294.374 144.6 294.236C144.05 294.098 143.6 293.826 143.6 293.632C143.6 293.18 140.938 291.6 140.177 291.6C139.86 291.6 139.6 291.447 139.6 291.26C139.6 290.961 134.413 287.24 131.71 285.6C131.166 285.27 130.145 284.46 129.441 283.8C128.737 283.14 127.54 282.091 126.781 281.468C126.021 280.845 123.329 278.314 120.798 275.843C118.267 273.371 115.927 271.181 115.598 270.975C115.269 270.769 114.82 270.306 114.6 269.947C114.38 269.588 113.12 267.983 111.8 266.381C108.719 262.64 106.982 260.361 105.034 257.5C104.172 256.235 103.341 255.2 103.187 255.2C103.033 255.2 102.533 254.3 102.075 253.2C101.618 252.1 101.054 251.2 100.822 251.2C100.59 251.2 100.4 250.869 100.4 250.465C100.4 250.061 99.68 248.725 98.8 247.496C97.92 246.267 97.2 245.048 97.2 244.786C97.2 244.525 96.39 242.612 95.4 240.536C94.41 238.46 93.6 236.678 93.6 236.576C93.6 236.474 93.25 235.628 92.823 234.696C91.831 232.532 89.476 225.412 88.424 221.397C87.978 219.692 87.446 218.095 87.242 217.849C87.038 217.602 86.873 216.95 86.877 216.4C86.88 215.85 86.684 214.32 86.44 213C86.196 211.68 85.845 209.743 85.661 208.696C85.477 207.649 85.2 206.667 85.047 206.514C84.894 206.361 72.187 206.133 56.809 206.009L28.849 205.782L26.965 203.87C24.073 200.937 20.724 199.91 16.8 200.753ZM36.4 214.8C36.4 215.02 35.86 215.2 35.2 215.2C34.54 215.2 34 215.02 34 214.8C34 214.58 34.54 214.4 35.2 214.4C35.86 214.4 36.4 214.58 36.4 214.8Z" fill="#10265E"/>
<path fill-rule="evenodd" clip-rule="evenodd" d="M373.864 150.578C373.701 151.004 373.249 151.093 372.159 150.916C371.091 150.743 370.756 150.805 370.961 151.138C371.143 151.432 370.941 151.6 370.405 151.6C369.514 151.6 367.479 153.346 367.891 153.758C368.024 153.891 367.833 154 367.467 154C367.1 154 366.8 154.141 366.8 154.313C366.8 155.693 363.851 155.783 318.5 155.792C294.026 155.796 274.001 155.935 274 156.1C274 156.265 273.738 156.4 273.419 156.4C270.846 156.4 271.723 161.897 274.531 163.376C275.751 164.018 318.957 164.066 356.895 163.467L365.19 163.336L366.082 164.638C366.573 165.354 367.115 165.853 367.287 165.746C367.459 165.64 367.6 165.749 367.6 165.99C367.6 166.664 370.294 169.2 371.01 169.2C371.361 169.2 371.544 169.367 371.418 169.571C371.059 170.152 378.332 170.282 379.666 169.718C387.486 166.413 387.575 153.366 379.795 150.798C378.809 150.473 378.216 150.47 377.62 150.79C377.141 151.045 376.8 151.07 376.8 150.847C376.8 150.638 377.025 150.376 377.3 150.265C377.575 150.154 376.964 150.049 375.943 150.032C374.67 150.01 374.016 150.182 373.864 150.578ZM334.248 179.381C334.427 179.849 334.18 179.914 332.973 179.718C331.894 179.543 331.555 179.604 331.761 179.938C331.95 180.242 331.691 180.4 331 180.4C330.404 180.4 330.059 180.572 330.2 180.8C330.364 181.066 308.855 181.2 265.977 181.2H201.507L201.812 182.3C202.358 184.272 202.494 198.806 201.996 201.944C201.355 205.973 200.049 205.712 218.447 205.226C228.302 204.966 235.068 204.942 235.8 205.165C236.46 205.367 236.9 205.547 236.778 205.566C236.655 205.585 240.241 209.245 244.746 213.7C264.916 233.646 299.125 267.855 299.446 268.4C300.378 269.98 303.236 272 304.539 272C307.307 272 307.2 272.907 307.2 249.541V228.546L295.5 216.973C276.48 198.16 272.83 194.128 274.1 193.335C274.746 192.931 326.157 192.503 326.333 192.9C326.407 193.065 326.722 193.2 327.033 193.2C327.345 193.2 327.6 193.453 327.6 193.763C327.6 196.152 333.147 198.755 337.211 198.273C341.7 197.742 347.215 192.255 345.243 190.283C344.703 189.743 344.656 187.736 345.175 187.415C345.382 187.288 345.622 187.862 345.708 188.692L345.866 190.2L345.933 188.715C346.116 184.67 342.122 179.178 339.379 179.702C338.841 179.805 338.086 179.65 337.7 179.357C336.699 178.597 333.954 178.615 334.248 179.381ZM328.4 182C328.4 182.265 308.4 182.4 269.2 182.4C230 182.4 210 182.265 210 182C210 181.735 230 181.6 269.2 181.6C308.4 181.6 328.4 181.735 328.4 182ZM322.4 191.6C322.4 191.831 321.133 192 319.4 192C317.667 192 316.4 191.831 316.4 191.6C316.4 191.369 317.667 191.2 319.4 191.2C321.133 191.2 322.4 191.369 322.4 191.6ZM207.6 204.4C207.6 204.622 206.533 204.8 205.2 204.8C203.867 204.8 202.8 204.622 202.8 204.4C202.8 204.178 203.867 204 205.2 204C206.533 204 207.6 204.178 207.6 204.4ZM306.4 230.4C306.4 231.06 306.22 231.6 306 231.6C305.78 231.6 305.6 231.06 305.6 230.4C305.6 229.74 305.78 229.2 306 229.2C306.22 229.2 306.4 229.74 306.4 230.4ZM306.4 267.6C306.4 268.7 306.22 269.6 306 269.6C305.78 269.6 305.6 268.7 305.6 267.6C305.6 266.5 305.78 265.6 306 265.6C306.22 265.6 306.4 266.5 306.4 267.6Z" fill="#5DA4BC"/>
<path fill-rule="evenodd" clip-rule="evenodd" d="M192.7 59.482C193.195 59.578 194.005 59.578 194.5 59.482C194.995 59.387 194.59 59.309 193.6 59.309C192.61 59.309 192.205 59.387 192.7 59.482ZM206.7 59.493C207.635 59.577 209.165 59.577 210.1 59.493C211.035 59.409 210.27 59.34 208.4 59.34C206.53 59.34 205.765 59.409 206.7 59.493ZM188.5 59.887C189.105 59.978 190.095 59.978 190.7 59.887C191.305 59.795 190.81 59.72 189.6 59.72C188.39 59.72 187.895 59.795 188.5 59.887ZM212.7 59.882C213.195 59.978 214.005 59.978 214.5 59.882C214.995 59.787 214.59 59.709 213.6 59.709C212.61 59.709 212.205 59.787 212.7 59.882ZM218.4 60.42C220.814 60.85 222.706 60.813 220.6 60.377C219.72 60.195 218.46 60.058 217.8 60.073C216.9 60.093 217.05 60.18 218.4 60.42ZM224 61.205C224.33 61.416 225.125 61.591 225.767 61.594C227.314 61.602 226.977 61.371 225 61.068C223.91 60.901 223.591 60.945 224 61.205ZM174 62C173.176 62.264 173.141 62.326 173.8 62.354C174.24 62.373 174.87 62.213 175.2 62C175.901 61.547 175.414 61.547 174 62ZM228.6 62C229.04 62.189 229.76 62.338 230.2 62.332C230.843 62.323 230.804 62.257 230 62C228.632 61.562 227.581 61.562 228.6 62ZM170.6 62.8C170.096 63.017 170.022 63.144 170.4 63.144C170.73 63.144 171.36 62.989 171.8 62.8C172.304 62.583 172.378 62.456 172 62.456C171.67 62.456 171.04 62.611 170.6 62.8ZM235 63.6C235.44 63.789 236.16 63.938 236.6 63.932C237.243 63.923 237.204 63.857 236.4 63.6C235.032 63.162 233.981 63.162 235 63.6ZM161.6 65.2C160.796 65.457 160.757 65.523 161.4 65.532C161.84 65.538 162.56 65.389 163 65.2C164.019 64.762 162.968 64.762 161.6 65.2ZM335.521 69.499C337.788 69.57 341.388 69.57 343.521 69.498C345.655 69.426 343.8 69.368 339.4 69.368C335 69.368 333.255 69.427 335.521 69.499ZM349.712 69.495C350.764 69.577 352.384 69.576 353.312 69.492C354.24 69.408 353.38 69.341 351.4 69.342C349.42 69.343 348.66 69.412 349.712 69.495ZM324.783 71.48C323.802 72.514 323.339 73.102 323.753 72.787C324.927 71.894 327.151 69.6 326.843 69.6C326.691 69.6 325.764 70.446 324.783 71.48ZM355.247 69.9C355.38 70.74 355.031 71.325 353.118 73.468C351.972 74.75 351.636 75.26 352.369 74.6C354.752 72.456 356.598 69.6 355.6 69.6C355.38 69.6 355.221 69.735 355.247 69.9ZM254.8 70.6C255.35 70.914 255.98 71.172 256.2 71.172C256.42 71.172 256.15 70.914 255.6 70.6C255.05 70.286 254.42 70.028 254.2 70.028C253.98 70.028 254.25 70.286 254.8 70.6ZM196 72.378C194.35 72.506 197.293 72.609 202.54 72.606C207.787 72.603 211.567 72.486 210.94 72.347C209.547 72.038 200.109 72.058 196 72.378ZM188.9 73.076C189.285 73.176 189.915 73.176 190.3 73.076C190.685 72.975 190.37 72.893 189.6 72.893C188.83 72.893 188.515 72.975 188.9 73.076ZM213.233 72.946C213.325 73.026 214.39 73.194 215.6 73.319C217.02 73.466 217.446 73.429 216.8 73.213C215.809 72.883 212.913 72.665 213.233 72.946ZM140.2 74.4C139.54 74.837 139.18 75.192 139.4 75.188C139.801 75.182 141.976 73.623 141.6 73.612C141.49 73.608 140.86 73.963 140.2 74.4ZM182.1 73.876C182.485 73.976 183.115 73.976 183.5 73.876C183.885 73.775 183.57 73.693 182.8 73.693C182.03 73.693 181.715 73.775 182.1 73.876ZM218.433 73.744C218.525 73.823 219.59 73.989 220.8 74.112C222.169 74.251 222.698 74.208 222.2 73.996C221.433 73.67 218.089 73.447 218.433 73.744ZM321.4 75.2C320.541 76.08 320.009 76.785 320.219 76.766C320.586 76.734 323.465 73.6 323.128 73.6C323.037 73.6 322.259 74.32 321.4 75.2ZM176.8 74.8C176.036 75.294 176.858 75.294 178.4 74.8L179.4 74.48L178.4 74.446C177.85 74.427 177.13 74.587 176.8 74.8ZM224.433 74.547C224.525 74.628 225.32 74.804 226.2 74.938C227.315 75.107 227.558 75.071 227 74.819C226.232 74.471 224.09 74.244 224.433 74.547ZM137.4 76C136.74 76.437 136.38 76.792 136.6 76.788C137.001 76.782 139.176 75.223 138.8 75.212C138.69 75.208 138.06 75.563 137.4 76ZM173.8 75.6C173.296 75.817 173.222 75.944 173.6 75.944C173.93 75.944 174.56 75.789 175 75.6C175.504 75.383 175.578 75.256 175.2 75.256C174.87 75.256 174.24 75.411 173.8 75.6ZM228.6 75.6C229.04 75.789 229.67 75.944 230 75.944C230.378 75.944 230.304 75.817 229.8 75.6C229.36 75.411 228.73 75.256 228.4 75.256C228.022 75.256 228.096 75.383 228.6 75.6ZM169.8 76.4C169.296 76.617 169.222 76.744 169.6 76.744C169.93 76.744 170.56 76.589 171 76.4C171.504 76.183 171.578 76.056 171.2 76.056C170.87 76.056 170.24 76.211 169.8 76.4ZM134.7 77.429C133.205 78.24 133.296 78.578 134.8 77.8C135.46 77.459 136 77.094 136 76.99C136 76.732 135.957 76.747 134.7 77.429ZM271.163 79.413C272.343 80.19 273.366 80.767 273.438 80.696C273.604 80.529 269.752 78 269.333 78C269.16 78 269.983 78.636 271.163 79.413ZM316.584 80.5C312.61 84.651 311.027 86.4 311.242 86.4C311.355 86.4 313.205 84.51 315.353 82.2C317.501 79.89 319.195 78 319.118 78C319.04 78 317.9 79.125 316.584 80.5ZM239.4 78.8C239.84 78.989 240.47 79.144 240.8 79.144C241.178 79.144 241.104 79.017 240.6 78.8C240.16 78.611 239.53 78.456 239.2 78.456C238.822 78.456 238.896 78.583 239.4 78.8ZM346.017 80.985L343.833 83.4L346.198 81.114C347.498 79.857 348.481 78.771 348.381 78.7C348.282 78.629 347.217 79.657 346.017 80.985ZM275.2 81.746C275.2 81.856 275.74 82.33 276.4 82.8C277.06 83.27 277.6 83.564 277.6 83.454C277.6 83.344 277.06 82.87 276.4 82.4C275.74 81.93 275.2 81.636 275.2 81.746ZM340.591 86.9L337.4 90.2L340.7 87.009C342.515 85.255 344 83.77 344 83.709C344 83.418 343.554 83.835 340.591 86.9ZM259.5 85.099C261.975 85.169 266.025 85.169 268.5 85.099C270.975 85.028 268.95 84.971 264 84.971C259.05 84.971 257.025 85.028 259.5 85.099ZM144.1 87.426C143.165 87.987 142.4 88.54 142.4 88.655C142.4 88.871 145.099 87.338 145.78 86.736C146.467 86.128 145.827 86.391 144.1 87.426ZM119.97 87.9L119 89L120.2 88C120.86 87.45 121.475 86.955 121.567 86.9C121.658 86.845 121.555 86.8 121.336 86.8C121.118 86.8 120.503 87.295 119.97 87.9ZM306.208 91.8C303.628 94.55 301.638 96.8 301.787 96.8C301.936 96.8 302.269 96.573 302.529 96.295C306.942 91.571 311.246 86.8 311.094 86.8C310.987 86.8 308.788 89.05 306.208 91.8ZM140.1 89.826C139.165 90.387 138.4 90.94 138.4 91.055C138.4 91.271 141.099 89.738 141.78 89.136C142.467 88.528 141.827 88.791 140.1 89.826ZM116.175 90.9L115 92.2L116.3 91.025C117.512 89.93 117.784 89.6 117.475 89.6C117.406 89.6 116.821 90.185 116.175 90.9ZM335.287 92.382C332.484 95.357 327.74 100.715 329.25 99.2C332.967 95.472 337.32 90.792 337.169 90.685C337.076 90.619 336.229 91.383 335.287 92.382ZM110.389 96.3C108.08 98.665 105.383 101.505 104.396 102.612C103.046 104.123 103.19 104.024 104.976 102.212C112.127 94.953 114.964 92 114.786 92C114.676 92 112.697 93.935 110.389 96.3ZM133.985 94.029L132.6 95.258L134.1 94.181C135.426 93.23 135.857 92.8 135.485 92.8C135.422 92.8 134.747 93.353 133.985 94.029ZM192.9 96.287C193.505 96.378 194.495 96.378 195.1 96.287C195.705 96.195 195.21 96.12 194 96.12C192.79 96.12 192.295 96.195 192.9 96.287ZM208.705 96.283C209.202 96.379 209.922 96.375 210.305 96.275C210.687 96.175 210.28 96.096 209.4 96.101C208.52 96.105 208.207 96.187 208.705 96.283ZM189.1 96.682C189.595 96.778 190.405 96.778 190.9 96.682C191.395 96.587 190.99 96.509 190 96.509C189.01 96.509 188.605 96.587 189.1 96.682ZM212.1 96.687C212.705 96.778 213.695 96.778 214.3 96.687C214.905 96.595 214.41 96.52 213.2 96.52C211.99 96.52 211.495 96.595 212.1 96.687ZM185 97.2C183.93 97.472 183.908 97.505 184.8 97.505C185.35 97.505 186.34 97.368 187 97.2C188.07 96.928 188.092 96.895 187.2 96.895C186.65 96.895 185.66 97.032 185 97.2ZM299.385 99.3L297.4 101.4L299.5 99.415C301.451 97.571 301.783 97.2 301.485 97.2C301.422 97.2 300.477 98.145 299.385 99.3ZM221.4 98C221.84 98.189 222.56 98.338 223 98.332C223.643 98.323 223.604 98.257 222.8 98C221.432 97.562 220.381 97.562 221.4 98ZM125.6 100.44L123.4 102.47L125.7 100.587C127.719 98.933 128.268 98.388 127.9 98.404C127.845 98.407 126.81 99.323 125.6 100.44ZM224.6 98.8C225.04 98.989 225.67 99.144 226 99.144C226.378 99.144 226.304 99.017 225.8 98.8C225.36 98.611 224.73 98.456 224.4 98.456C224.022 98.456 224.096 98.583 224.6 98.8ZM326.837 101.515C326.527 101.892 325.538 103.01 324.639 104C323.525 105.226 323.8 105.039 325.502 103.413C326.876 102.099 328 100.974 328 100.913C328 100.572 327.325 100.922 326.837 101.515ZM296.094 102.812C295.375 103.465 294.937 104 295.119 104C295.301 104 295.968 103.46 296.6 102.8C298.07 101.265 297.786 101.272 296.094 102.812ZM118.785 106.7C114.898 110.678 110.503 115.48 112.836 113.2C115.242 110.848 123.317 102.4 123.159 102.4C123.064 102.4 121.096 104.335 118.785 106.7ZM160.2 105.6C159.54 106.037 159.18 106.392 159.4 106.388C159.801 106.382 161.976 104.823 161.6 104.812C161.49 104.808 160.86 105.163 160.2 105.6ZM100.387 107.216C99.458 108.325 98.766 109.291 98.849 109.363C98.932 109.434 99.774 108.527 100.719 107.347C102.895 104.629 102.637 104.528 100.387 107.216ZM320.587 108.5L318.2 111L320.7 108.613C322.075 107.299 323.2 106.174 323.2 106.113C323.2 105.817 322.805 106.178 320.587 108.5ZM154.3 108.629C152.805 109.44 152.896 109.778 154.4 109C155.06 108.659 155.6 108.294 155.6 108.19C155.6 107.932 155.557 107.947 154.3 108.629ZM148.8 112.449C147.406 113.671 147.405 113.672 148.688 112.819C149.396 112.348 150.082 111.791 150.212 111.581C150.597 110.957 150.277 111.154 148.8 112.449ZM314.787 114.7C309.882 119.754 307.805 122 308.035 122C308.146 122 310.537 119.57 313.349 116.6C316.16 113.63 318.398 111.2 318.322 111.2C318.246 111.2 316.655 112.775 314.787 114.7ZM91.337 119.9C90.686 120.945 89.828 122.295 89.431 122.9C89.033 123.505 88.793 124 88.897 124C89.105 124 91.584 120.338 92.349 118.9C93.196 117.309 92.557 117.94 91.337 119.9ZM108.115 118.9C106.381 121.167 105.466 122.52 105.809 122.313C106.281 122.027 108.937 118.4 108.674 118.4C108.577 118.4 108.326 118.625 108.115 118.9ZM134.316 125.014C132.052 127.552 130.127 129.84 130.039 130.098C129.95 130.356 130.485 129.855 131.228 128.984C131.971 128.113 133.998 125.825 135.733 123.9C137.467 121.975 138.784 120.4 138.659 120.4C138.534 120.4 136.579 122.476 134.316 125.014ZM87.8 125.6C87.459 126.26 87.269 126.8 87.379 126.8C87.489 126.8 87.859 126.26 88.2 125.6C88.541 124.94 88.731 124.4 88.621 124.4C88.511 124.4 88.141 124.94 87.8 125.6ZM303.6 126.948C303.05 127.456 301.791 128.755 300.803 129.835C299.765 130.97 300.23 130.621 301.903 129.011C303.496 127.477 304.8 126.172 304.8 126.111C304.8 125.89 304.582 126.042 303.6 126.948ZM101.853 127.991C101.274 128.867 100.8 129.717 100.8 129.88C100.8 130.044 101.042 129.823 101.339 129.389C102.641 127.481 103.278 126.4 103.099 126.4C102.993 126.4 102.432 127.116 101.853 127.991ZM128.744 131.5C127.593 132.889 127.106 133.6 127.304 133.6C127.414 133.6 127.986 132.97 128.573 132.2C129.663 130.771 129.795 130.232 128.744 131.5ZM259.3 133.1C266.285 133.161 277.715 133.161 284.7 133.1C291.685 133.039 285.97 132.988 272 132.988C258.03 132.988 252.315 133.039 259.3 133.1ZM205.324 133.499C208.362 133.567 213.222 133.567 216.124 133.499C219.026 133.431 216.54 133.375 210.6 133.375C204.66 133.375 202.286 133.431 205.324 133.499ZM191 134.003C190.485 134.226 190.913 134.267 192.2 134.118C193.3 133.991 194.275 133.823 194.367 133.744C194.714 133.445 191.764 133.672 191 134.003ZM185.6 135.618C185.162 135.915 185.324 135.952 186.2 135.756C187.671 135.427 187.99 135.198 186.967 135.206C186.545 135.209 185.93 135.395 185.6 135.618ZM95.844 139.442C95.05 141.114 94.408 142.599 94.419 142.742C94.441 143.058 96.317 139.487 97.066 137.7C98.091 135.256 97.291 136.396 95.844 139.442ZM124.087 138.1C122.627 140.256 122.312 140.8 122.52 140.8C122.612 140.8 123.344 139.81 124.147 138.6C124.951 137.39 125.525 136.4 125.423 136.4C125.322 136.4 124.72 137.165 124.087 138.1ZM180 137.6C178.165 138.605 178.65 138.61 180.856 137.609C181.815 137.174 182.33 136.821 182 136.826C181.67 136.83 180.77 137.178 180 137.6ZM175.9 139.829C174.405 140.64 174.496 140.978 176 140.2C176.66 139.859 177.2 139.494 177.2 139.39C177.2 139.132 177.157 139.147 175.9 139.829ZM120.653 143.7L119.933 145L120.758 144C121.489 143.113 121.814 142.4 121.486 142.4C121.424 142.4 121.049 142.985 120.653 143.7ZM168.396 145.153C166.528 146.667 164.37 148.598 163.6 149.445C162.756 150.373 163.153 150.109 164.6 148.78C165.92 147.567 168.125 145.699 169.5 144.629C171.717 142.902 172.257 142.4 171.896 142.4C171.838 142.4 170.263 143.639 168.396 145.153ZM370.6 150.573C369.5 151.082 367.98 152.152 367.222 152.95L365.843 154.4H320.283C274.789 154.4 274.722 154.401 273.556 155.232C271.153 156.942 270.561 159.726 272.108 162.041C274.082 164.996 270.634 164.799 320.413 164.799L365.025 164.8L367.413 167.241C373.392 173.353 381.711 172.311 385.194 165.013C389.74 155.488 380.253 146.101 370.6 150.573ZM377.3 150.265C377.025 150.376 376.8 150.638 376.8 150.847C376.8 151.07 377.141 151.045 377.62 150.79C378.216 150.47 378.809 150.473 379.795 150.798C387.575 153.366 387.486 166.413 379.666 169.718C378.332 170.282 371.059 170.152 371.418 169.571C371.544 169.367 371.361 169.2 371.01 169.2C370.294 169.2 367.6 166.664 367.6 165.99C367.6 165.749 367.459 165.64 367.287 165.746C367.115 165.853 366.573 165.354 366.082 164.638L365.19 163.336L356.895 163.467C318.957 164.066 275.751 164.018 274.531 163.376C271.723 161.897 270.846 156.4 273.419 156.4C273.738 156.4 274 156.265 274 156.1C274.001 155.935 294.026 155.796 318.5 155.792C363.851 155.783 366.8 155.693 366.8 154.313C366.8 154.141 367.1 154 367.467 154C367.833 154 368.024 153.891 367.891 153.758C367.479 153.346 369.514 151.6 370.405 151.6C370.941 151.6 371.143 151.432 370.961 151.138C370.756 150.805 371.091 150.743 372.159 150.916C373.249 151.093 373.701 151.004 373.864 150.578C374.016 150.182 374.67 150.01 375.943 150.032C376.964 150.049 377.575 150.154 377.3 150.265ZM161.386 151.784C161.174 152.084 160.4 153.066 159.666 153.965C158.933 154.864 158.41 155.6 158.504 155.6C158.802 155.6 162.094 151.561 161.929 151.396C161.843 151.309 161.598 151.484 161.386 151.784ZM17 153.221C11.94 153.355 16.62 153.383 27.4 153.285C38.18 153.187 47.075 153.037 47.167 152.953C47.389 152.749 28.514 152.917 17 153.221ZM12.5 162.676C12.885 162.776 13.515 162.776 13.9 162.676C14.285 162.575 13.97 162.493 13.2 162.493C12.43 162.493 12.115 162.575 12.5 162.676ZM71.523 162.699C74.231 162.768 78.551 162.768 81.123 162.699C83.695 162.629 81.48 162.572 76.2 162.573C70.92 162.573 68.815 162.63 71.523 162.699ZM111.646 166.067C111.621 166.434 111.496 167.064 111.37 167.467C111.152 168.162 111.163 168.163 111.597 167.487C111.848 167.096 111.973 166.466 111.873 166.087C111.711 165.468 111.688 165.466 111.646 166.067ZM109.822 175.822C109.672 176.625 109.628 177.362 109.726 177.46C109.824 177.557 110.027 176.981 110.178 176.178C110.328 175.375 110.372 174.638 110.274 174.54C110.176 174.443 109.973 175.019 109.822 175.822ZM149.049 175.415C148.912 175.773 148.815 176.366 148.834 176.733C148.853 177.1 149.027 176.869 149.221 176.22C149.598 174.958 149.465 174.333 149.049 175.415ZM330.613 179.611L328.225 180.798L264.613 180.899L201 181L200.894 193.152C200.819 201.785 200.92 205.462 201.243 205.852C201.616 206.301 204.854 206.4 219.121 206.4H236.544L268.772 238.736C306.214 276.303 303.834 274.234 306.769 271.764L308 270.729V249.705V228.682L293.017 213.641C276.726 197.286 274.411 194.856 274.404 194.1C274.401 193.705 279.834 193.6 300.249 193.6H326.098L328.571 195.913C334.067 201.055 342.045 199.759 345.287 193.2C349.873 183.921 340.118 174.888 330.613 179.611ZM29.329 179.1C37.211 179.161 49.991 179.161 57.729 179.1C65.468 179.039 59.02 178.989 43.4 178.99C27.78 178.99 21.448 179.039 29.329 179.1ZM109.301 180.2C109.305 181.08 109.387 181.393 109.483 180.895C109.579 180.398 109.575 179.678 109.475 179.295C109.375 178.913 109.296 179.32 109.301 180.2ZM337.7 179.357C338.086 179.65 338.841 179.805 339.379 179.702C342.122 179.178 346.116 184.67 345.933 188.715L345.866 190.2L345.708 188.692C345.622 187.862 345.382 187.288 345.175 187.415C344.656 187.736 344.703 189.743 345.243 190.283C347.215 192.255 341.7 197.742 337.211 198.273C333.147 198.755 327.6 196.152 327.6 193.763C327.6 193.453 327.345 193.2 327.033 193.2C326.722 193.2 326.407 193.065 326.333 192.9C326.157 192.503 274.746 192.931 274.1 193.335C272.83 194.128 276.48 198.16 295.5 216.973L307.2 228.546V249.541C307.2 272.907 307.307 272 304.539 272C303.236 272 300.378 269.98 299.446 268.4C299.125 267.855 264.916 233.646 244.746 213.7C240.241 209.245 236.655 205.585 236.778 205.566C236.9 205.547 236.46 205.367 235.8 205.165C235.068 204.942 228.302 204.966 218.447 205.226C200.049 205.712 201.355 205.973 201.996 201.944C202.494 198.806 202.358 184.272 201.812 182.3L201.507 181.2H265.977C308.855 181.2 330.364 181.066 330.2 180.8C330.059 180.572 330.404 180.4 331 180.4C331.691 180.4 331.95 180.242 331.761 179.938C331.555 179.604 331.894 179.543 332.973 179.718C334.18 179.914 334.427 179.849 334.248 179.381C333.954 178.615 336.699 178.597 337.7 179.357ZM82.035 179.3C82.128 179.355 82.833 179.94 83.602 180.6L85 181.8L83.825 180.5C83.179 179.785 82.474 179.2 82.258 179.2C82.043 179.2 81.943 179.245 82.035 179.3ZM210 182C210 182.265 230 182.4 269.2 182.4C308.4 182.4 328.4 182.265 328.4 182C328.4 181.735 308.4 181.6 269.2 181.6C230 181.6 210 181.735 210 182ZM84.977 183.908C84.994 185.496 85.089 185.817 85.359 185.212C85.575 184.73 85.566 183.888 85.336 183.104C84.978 181.886 84.955 181.94 84.977 183.908ZM108.901 183.8C108.905 184.68 108.987 184.993 109.083 184.495C109.179 183.998 109.175 183.278 109.075 182.895C108.975 182.513 108.896 182.92 108.901 183.8ZM147.759 189.6C147.759 192.79 147.821 194.095 147.897 192.5C147.973 190.905 147.973 188.295 147.897 186.7C147.821 185.105 147.759 186.41 147.759 189.6ZM83.475 187.845C82.425 189.079 82.161 189.175 79.475 189.303L76.6 189.441L79.422 189.521C82.016 189.594 85.839 187.556 84.773 186.668C84.678 186.589 84.094 187.119 83.475 187.845ZM316.4 191.6C316.4 191.831 317.667 192 319.4 192C321.133 192 322.4 191.831 322.4 191.6C322.4 191.369 321.133 191.2 319.4 191.2C317.667 191.2 316.4 191.369 316.4 191.6ZM108.909 196C108.909 196.99 108.987 197.395 109.082 196.9C109.178 196.405 109.178 195.595 109.082 195.1C108.987 194.605 108.909 195.01 108.909 196ZM148.028 198.433C148.044 199.185 148.212 200.16 148.403 200.6C148.626 201.115 148.667 200.687 148.518 199.4C148.244 197.022 147.989 196.519 148.028 198.433ZM109.309 199.6C109.309 200.59 109.387 200.995 109.482 200.5C109.578 200.005 109.578 199.195 109.482 198.7C109.387 198.205 109.309 198.61 109.309 199.6ZM15.6 200.418C15.162 200.715 15.324 200.752 16.2 200.556C17.671 200.227 17.99 199.998 16.967 200.006C16.545 200.009 15.93 200.195 15.6 200.418ZM12.744 201.78C11.341 202.733 8.788 206.102 8.812 206.969C8.819 207.206 9.02 207.04 9.259 206.6C10.517 204.288 11.901 202.665 13.366 201.787C14.265 201.248 14.817 200.806 14.593 200.804C14.369 200.802 13.537 201.241 12.744 201.78ZM25.6 201.722C25.6 201.792 26.163 202.379 26.85 203.025C27.725 203.848 27.947 203.948 27.591 203.359C27.151 202.633 25.6 201.357 25.6 201.722ZM202.8 204.4C202.8 204.622 203.867 204.8 205.2 204.8C206.533 204.8 207.6 204.622 207.6 204.4C207.6 204.178 206.533 204 205.2 204C203.867 204 202.8 204.178 202.8 204.4ZM28.576 204.97C29.158 205.442 30.16 205.583 32.576 205.531L35.8 205.462L32.4 205.231C30.53 205.104 28.73 204.852 28.4 204.67C28.07 204.489 28.149 204.624 28.576 204.97ZM79.6 205.848C81.922 206.146 85.601 206.177 85.601 205.9C85.6 205.735 84.025 205.627 82.1 205.66C80.175 205.693 79.05 205.778 79.6 205.848ZM110.662 209C110.796 209.88 110.972 210.675 111.053 210.767C111.356 211.11 111.129 208.968 110.781 208.2C110.529 207.642 110.493 207.885 110.662 209ZM8.028 210.833C8.044 211.805 8.206 212.96 8.39 213.4C8.592 213.883 8.638 213.249 8.507 211.8C8.245 208.91 7.989 208.393 8.028 210.833ZM87.256 215.2C87.256 215.53 87.411 216.16 87.6 216.6C87.817 217.104 87.944 217.178 87.944 216.8C87.944 216.47 87.789 215.84 87.6 215.4C87.383 214.896 87.256 214.822 87.256 215.2ZM112.056 215.2C112.056 215.53 112.211 216.16 112.4 216.6C112.617 217.104 112.744 217.178 112.744 216.8C112.744 216.47 112.589 215.84 112.4 215.4C112.183 214.896 112.056 214.822 112.056 215.2ZM154.2 216.8C154.541 217.46 154.911 218 155.021 218C155.131 218 154.941 217.46 154.6 216.8C154.259 216.14 153.889 215.6 153.779 215.6C153.669 215.6 153.859 216.14 154.2 216.8ZM28.151 216.9C27.717 217.395 27.119 218.16 26.823 218.6C26.526 219.04 26.895 218.722 27.642 217.894L29 216.388L49.2 216.29L69.4 216.192L49.17 216.096L28.939 216L28.151 216.9ZM71.795 216.297C72.672 216.386 73.617 216.648 73.895 216.879C74.228 217.155 74.4 217.16 74.4 216.892C74.4 216.306 73.353 215.99 71.667 216.067L70.2 216.134L71.795 216.297ZM11.469 218.832C11.966 219.433 14.4 220.964 14.4 220.676C14.4 220.583 13.635 220.002 12.7 219.385C11.765 218.768 11.211 218.52 11.469 218.832ZM74.468 218.8C74.488 219.839 75.118 221.546 75.132 220.6C75.138 220.16 74.989 219.44 74.8 219C74.589 218.51 74.461 218.432 74.468 218.8ZM24.6 220.25C23.881 220.862 23.734 221.105 24.233 220.857C24.966 220.493 26.341 219.176 25.949 219.214C25.867 219.222 25.26 219.688 24.6 220.25ZM88.856 221.6C88.856 221.93 89.011 222.56 89.2 223C89.417 223.504 89.544 223.578 89.544 223.2C89.544 222.87 89.389 222.24 89.2 221.8C88.983 221.296 88.856 221.222 88.856 221.6ZM18.307 221.89C19.026 221.979 20.106 221.977 20.707 221.886C21.308 221.795 20.72 221.722 19.4 221.724C18.08 221.726 17.588 221.801 18.307 221.89ZM75.256 222.4C75.256 222.73 75.411 223.36 75.6 223.8C75.817 224.304 75.944 224.378 75.944 224C75.944 223.67 75.789 223.04 75.6 222.6C75.383 222.096 75.256 222.022 75.256 222.4ZM158.839 223.6C159.563 224.59 160.21 225.475 160.277 225.567C160.345 225.658 160.397 225.568 160.394 225.367C160.391 225.165 159.744 224.28 158.956 223.4L157.524 221.8L158.839 223.6ZM163.8 229.137C165.56 230.964 167.72 233.016 168.6 233.698C170.415 235.103 170.473 235.164 164.8 229.792C160.712 225.922 160.685 225.904 163.8 229.137ZM305.6 230.4C305.6 231.06 305.78 231.6 306 231.6C306.22 231.6 306.4 231.06 306.4 230.4C306.4 229.74 306.22 229.2 306 229.2C305.78 229.2 305.6 229.74 305.6 230.4ZM237.088 232.681C237.599 232.78 245.919 240.909 256.688 251.831C266.98 262.269 276.57 271.86 278 273.143C279.43 274.427 270.986 265.785 259.236 253.939C243.739 238.316 237.642 232.415 237.036 232.454C236.245 232.506 236.248 232.518 237.088 232.681ZM119.8 234.4C120.141 235.06 120.511 235.6 120.621 235.6C120.731 235.6 120.541 235.06 120.2 234.4C119.859 233.74 119.489 233.2 119.379 233.2C119.269 233.2 119.459 233.74 119.8 234.4ZM121.16 236.6C121.834 237.905 122.388 238.628 122.385 238.2C122.383 237.98 122.014 237.35 121.564 236.8C121.021 236.136 120.885 236.069 121.16 236.6ZM230.296 236.95C228.375 238.131 227.838 238.689 229.4 237.881C230.654 237.233 232.345 236.026 232 236.025C231.89 236.025 231.123 236.441 230.296 236.95ZM226.6 239.2C225.94 239.637 225.58 239.992 225.8 239.988C226.201 239.982 228.376 238.423 228 238.412C227.89 238.408 227.26 238.763 226.6 239.2ZM123.077 240.031C123.475 240.708 124.056 241.473 124.368 241.731C124.68 241.989 124.432 241.435 123.815 240.5C122.52 238.537 122.009 238.212 123.077 240.031ZM221.2 241.8C220.65 242.114 220.38 242.372 220.6 242.372C220.82 242.372 221.45 242.114 222 241.8C222.55 241.486 222.82 241.228 222.6 241.228C222.38 241.228 221.75 241.486 221.2 241.8ZM97.6 244.198C97.6 244.636 99.576 248 99.834 248C99.944 248 99.544 247.145 98.946 246.1C97.656 243.848 97.6 243.769 97.6 244.198ZM212 244.4C211.208 244.654 211.167 244.72 211.8 244.72C212.24 244.72 213.05 244.576 213.6 244.4C214.392 244.146 214.433 244.08 213.8 244.08C213.36 244.08 212.55 244.224 212 244.4ZM128.174 247.1C129.179 248.365 130.829 250.3 131.84 251.4C133.786 253.516 132.995 252.458 129.075 247.7C126.239 244.258 125.554 243.802 128.174 247.1ZM196.1 245.476C196.485 245.576 197.115 245.576 197.5 245.476C197.885 245.375 197.57 245.293 196.8 245.293C196.03 245.293 195.715 245.375 196.1 245.476ZM203.3 245.491C204.125 245.578 205.475 245.578 206.3 245.491C207.125 245.405 206.45 245.334 204.8 245.334C203.15 245.334 202.475 245.405 203.3 245.491ZM102.587 253.175C102.921 253.821 103.376 254.461 103.598 254.599C103.82 254.736 103.623 254.207 103.161 253.424C102.148 251.707 101.735 251.528 102.587 253.175ZM87.8 254.4C88.141 255.06 88.511 255.6 88.621 255.6C88.731 255.6 88.541 255.06 88.2 254.4C87.859 253.74 87.489 253.2 87.379 253.2C87.269 253.2 87.459 253.74 87.8 254.4ZM89.63 257.4C90.124 258.28 90.7 259.18 90.91 259.4C91.509 260.028 90.139 257.494 89.396 256.6C89.03 256.16 89.135 256.52 89.63 257.4ZM136.415 256.619C136.698 256.959 137.485 257.617 138.164 258.082C139.195 258.786 139.143 258.684 137.85 257.463C136.26 255.963 135.5 255.515 136.415 256.619ZM107.2 260C107.67 260.66 108.144 261.2 108.254 261.2C108.364 261.2 108.07 260.66 107.6 260C107.13 259.34 106.656 258.8 106.546 258.8C106.436 258.8 106.73 259.34 107.2 260ZM91.412 260.4C92.142 261.729 95.638 266.8 95.824 266.8C96.047 266.8 92.124 260.831 91.487 260.2C91.215 259.931 91.191 259.997 91.412 260.4ZM109.53 263.1C109.961 263.705 110.728 264.56 111.234 265C111.74 265.44 111.451 264.945 110.592 263.9C108.873 261.808 108.303 261.379 109.53 263.1ZM146.2 264.965C146.86 265.532 147.565 265.997 147.767 265.998C148.201 266 148.196 265.996 146.4 264.837L145 263.934L146.2 264.965ZM305.6 267.6C305.6 268.7 305.78 269.6 306 269.6C306.22 269.6 306.4 268.7 306.4 267.6C306.4 266.5 306.22 265.6 306 265.6C305.78 265.6 305.6 266.5 305.6 267.6ZM113.47 267.8C116.627 271.625 128.235 282.607 130.819 284.215C131.561 284.677 130.847 284.034 126.469 280.295C124.637 278.731 120.591 274.829 117.478 271.625C114.366 268.421 112.562 266.7 113.47 267.8ZM150.8 268.15C150.8 268.244 151.441 268.699 152.224 269.161C153.007 269.623 153.536 269.82 153.399 269.598C153.131 269.164 150.8 267.866 150.8 268.15ZM98 270C98.697 270.88 99.357 271.6 99.467 271.6C99.577 271.6 99.097 270.88 98.4 270C97.703 269.12 97.043 268.4 96.933 268.4C96.823 268.4 97.303 269.12 98 270ZM154.6 270.607C155.04 270.966 155.76 271.435 156.2 271.651L157 272.044L156.2 271.393C155.76 271.034 155.04 270.565 154.6 270.349L153.8 269.956L154.6 270.607ZM270.2 293.104L292.2 315.208L304.995 315.104C320.6 314.977 319.965 315.479 313.131 308.663C310.419 305.958 308.2 303.791 308.2 303.848C308.2 303.904 310.315 306.106 312.9 308.74C319.364 315.328 320.062 314.8 304.901 314.8H292.203L270.201 292.9L248.2 271L270.2 293.104ZM157.2 272.19C157.2 272.294 157.785 272.665 158.5 273.014L159.8 273.648L158.8 272.833C157.837 272.048 157.2 271.792 157.2 272.19ZM101.21 273.886C101.215 274.059 102.16 275.2 103.31 276.422C105.341 278.582 105.099 278.194 102.477 275.086C101.775 274.253 101.204 273.713 101.21 273.886ZM289.609 284.968C300.309 295.878 306.801 302.318 306.796 302.018C306.795 301.898 300.904 295.95 293.705 288.8C285.188 280.339 283.757 279.001 289.609 284.968ZM177 280.4C177.44 280.589 178.07 280.744 178.4 280.744C178.778 280.744 178.704 280.617 178.2 280.4C177.76 280.211 177.13 280.056 176.8 280.056C176.422 280.056 176.496 280.183 177 280.4ZM109.885 283.593C111.692 285.447 113.224 286.882 113.29 286.782C113.357 286.682 111.878 285.165 110.005 283.412L106.6 280.223L109.885 283.593ZM180.2 281.2C180.64 281.389 181.27 281.544 181.6 281.544C181.978 281.544 181.904 281.417 181.4 281.2C180.96 281.011 180.33 280.856 180 280.856C179.622 280.856 179.696 280.983 180.2 281.2ZM222.2 281.2C221.696 281.417 221.622 281.544 222 281.544C222.33 281.544 222.96 281.389 223.4 281.2C223.904 280.983 223.978 280.856 223.6 280.856C223.27 280.856 222.64 281.011 222.2 281.2ZM219.4 282C218.896 282.217 218.822 282.344 219.2 282.344C219.53 282.344 220.16 282.189 220.6 282C221.104 281.783 221.178 281.656 220.8 281.656C220.47 281.656 219.84 281.811 219.4 282ZM192.1 283.487C192.705 283.578 193.695 283.578 194.3 283.487C194.905 283.395 194.41 283.32 193.2 283.32C191.99 283.32 191.495 283.395 192.1 283.487ZM208.3 283.489C209.015 283.578 210.185 283.578 210.9 283.489C211.615 283.401 211.03 283.328 209.6 283.328C208.17 283.328 207.585 283.401 208.3 283.489ZM132.4 285.346C132.4 285.456 132.94 285.93 133.6 286.4C134.26 286.87 134.8 287.164 134.8 287.054C134.8 286.944 134.26 286.47 133.6 286C132.94 285.53 132.4 285.236 132.4 285.346ZM116.339 289.5C117.544 290.655 118.705 291.6 118.919 291.6C119.133 291.6 118.789 291.21 118.154 290.734C117.519 290.257 116.358 289.312 115.574 288.634C114.79 287.955 115.134 288.345 116.339 289.5ZM140 290.538C140 290.793 146.278 294.8 146.678 294.8C146.855 294.8 145.65 293.937 144 292.882C140.015 290.333 140 290.325 140 290.538ZM119.6 292.125C119.6 292.224 120.261 292.809 121.068 293.425C121.876 294.041 122.411 294.341 122.256 294.091C121.94 293.579 119.6 291.847 119.6 292.125ZM123.4 295.099C124.355 296.093 132.554 301.773 132.194 301.191C132.057 300.969 130.562 299.861 128.872 298.73C127.183 297.599 125.08 296.131 124.2 295.469C123.32 294.807 122.96 294.64 123.4 295.099ZM262.909 298.244C267.235 302.74 267.405 303.161 265.4 304.4C263.676 305.466 263.528 305.922 265.231 304.923C268.037 303.275 267.895 302.851 262.912 297.995L259.017 294.2L262.909 298.244ZM156.8 299.419C156.8 299.713 159.249 300.85 159.609 300.724C159.804 300.656 159.251 300.298 158.382 299.93C157.512 299.561 156.8 299.331 156.8 299.419ZM233.4 303.6C232.896 303.817 232.822 303.944 233.2 303.944C233.53 303.944 234.16 303.789 234.6 303.6C235.104 303.383 235.178 303.256 234.8 303.256C234.47 303.256 233.84 303.411 233.4 303.6ZM171 304.4C171.44 304.589 172.07 304.744 172.4 304.744C172.778 304.744 172.704 304.617 172.2 304.4C171.76 304.211 171.13 304.056 170.8 304.056C170.422 304.056 170.496 304.183 171 304.4ZM230.6 304.4C230.096 304.617 230.022 304.744 230.4 304.744C230.73 304.744 231.36 304.589 231.8 304.4C232.304 304.183 232.378 304.056 232 304.056C231.67 304.056 231.04 304.211 230.6 304.4ZM138.8 305.22C140.187 306.161 140.978 306.435 140 305.636C139.45 305.186 138.82 304.817 138.6 304.815C138.38 304.813 138.47 304.996 138.8 305.22ZM177.4 306C177.84 306.189 178.56 306.338 179 306.332C179.643 306.323 179.604 306.257 178.8 306C177.432 305.562 176.381 305.562 177.4 306ZM224.2 306C223.696 306.217 223.622 306.344 224 306.344C224.33 306.344 224.96 306.189 225.4 306C225.904 305.783 225.978 305.656 225.6 305.656C225.27 305.656 224.64 305.811 224.2 306ZM261.1 306.626C260.055 307.17 259.2 307.705 259.2 307.814C259.2 307.993 263.16 306.123 263.567 305.752C264.062 305.301 262.761 305.762 261.1 306.626ZM181.8 306.8C183.492 307.231 184.944 307.231 183.6 306.8C183.05 306.624 182.15 306.483 181.6 306.487C180.702 306.494 180.722 306.526 181.8 306.8ZM220.8 306.8L219.8 307.12L220.8 307.154C221.35 307.173 222.07 307.013 222.4 306.8C223.164 306.306 222.342 306.306 220.8 306.8ZM216.1 307.476C216.485 307.576 217.115 307.576 217.5 307.476C217.885 307.375 217.57 307.293 216.8 307.293C216.03 307.293 215.715 307.375 216.1 307.476ZM189.9 307.882C190.395 307.978 191.205 307.978 191.7 307.882C192.195 307.787 191.79 307.709 190.8 307.709C189.81 307.709 189.405 307.787 189.9 307.882ZM213.3 307.876C213.685 307.976 214.315 307.976 214.7 307.876C215.085 307.775 214.77 307.693 214 307.693C213.23 307.693 212.915 307.775 213.3 307.876ZM196.707 308.29C197.426 308.379 198.506 308.377 199.107 308.286C199.708 308.195 199.12 308.122 197.8 308.124C196.48 308.126 195.988 308.201 196.707 308.29ZM203.6 308.4L200.2 308.651L203.2 308.679C204.85 308.694 207.37 308.575 208.8 308.414L211.4 308.122L209.2 308.136C207.99 308.143 205.47 308.262 203.6 308.4ZM257.2 308.6C256.65 308.914 256.38 309.172 256.6 309.172C256.82 309.172 257.45 308.914 258 308.6C258.55 308.286 258.82 308.028 258.6 308.028C258.38 308.028 257.75 308.286 257.2 308.6ZM157 314C157.44 314.189 158.07 314.344 158.4 314.344C158.778 314.344 158.704 314.217 158.2 314C157.76 313.811 157.13 313.656 156.8 313.656C156.422 313.656 156.496 313.783 157 314ZM167.6 317.2C168.968 317.638 170.019 317.638 169 317.2C168.56 317.011 167.84 316.862 167.4 316.868C166.757 316.877 166.796 316.943 167.6 317.2ZM170.8 318C171.13 318.213 171.67 318.388 172 318.388C172.533 318.388 172.533 318.345 172 318C171.67 317.787 171.13 317.612 170.8 317.612C170.267 317.612 170.267 317.655 170.8 318ZM173.8 318.8C174.24 318.989 174.96 319.138 175.4 319.132C176.043 319.123 176.004 319.057 175.2 318.8C173.832 318.362 172.781 318.362 173.8 318.8ZM227.2 318.8C226.405 319.314 227.404 319.314 228.6 318.8L229.4 318.456L228.6 318.434C228.16 318.422 227.53 318.587 227.2 318.8ZM178.2 319.6C178.86 319.768 179.76 319.914 180.2 319.925L181 319.944L180.2 319.6C179.76 319.411 178.86 319.265 178.2 319.275L177 319.295L178.2 319.6ZM181.633 320.145C181.725 320.224 182.88 320.387 184.2 320.507C185.649 320.638 186.283 320.592 185.8 320.39C185.03 320.069 181.293 319.849 181.633 320.145ZM219.7 320.276C220.085 320.376 220.715 320.376 221.1 320.276C221.485 320.175 221.17 320.093 220.4 320.093C219.63 320.093 219.315 320.175 219.7 320.276ZM193.512 321.272C193.89 321.421 197.44 321.526 201.4 321.505C209.721 321.459 208.709 321.268 199.312 321.109C195.743 321.049 193.133 321.122 193.512 321.272ZM212.905 321.087C213.514 321.179 214.414 321.177 214.905 321.082C215.397 320.987 214.9 320.911 213.8 320.914C212.7 320.917 212.297 320.995 212.905 321.087Z" fill="#93B8CA"/>
<path fill-rule="evenodd" clip-rule="evenodd" d="M193.4 59.6C190.978 59.932 191.414 60.102 194.4 59.989C195.61 59.943 200.11 59.902 204.4 59.898C211.177 59.892 211.675 59.851 208.2 59.592C203.3 59.227 196.093 59.231 193.4 59.6ZM185.2 60.358C184.088 60.559 183.951 60.672 184.536 60.907C184.941 61.07 185.433 61.103 185.63 60.981C185.827 60.86 186.755 60.609 187.694 60.424C189.336 60.1 189.348 60.088 188 60.096C187.23 60.101 185.97 60.219 185.2 60.358ZM215.6 60.473C217.769 60.936 217.979 60.957 219 60.813C219.991 60.673 216.644 60.054 215 60.073C214.056 60.085 214.184 60.17 215.6 60.473ZM179.8 61.2L178.6 61.505L179.8 61.513C180.46 61.517 181.45 61.376 182 61.2L183 60.88L182 60.887C181.45 60.891 180.46 61.032 179.8 61.2ZM221.8 61.2C223.676 61.677 224.739 61.677 224 61.2C223.67 60.987 222.77 60.831 222 60.853L220.6 60.895L221.8 61.2ZM174.8 62.019C174.25 62.203 173.17 62.534 172.4 62.756C171.137 63.118 171.196 63.135 173 62.921C175.407 62.636 178.41 61.648 176.8 61.671C176.25 61.679 175.35 61.835 174.8 62.019ZM226.2 61.889C226.64 61.998 227.202 62.25 227.449 62.45C227.696 62.65 228.223 62.689 228.62 62.537C229.589 62.165 228.377 61.647 226.6 61.675C225.785 61.687 225.657 61.756 226.2 61.889ZM230.4 62.692C230.73 62.817 231.09 63.045 231.2 63.199C231.31 63.352 232.39 63.581 233.6 63.707C234.963 63.849 235.496 63.807 235 63.596C234.56 63.409 233.716 63.244 233.124 63.228C232.532 63.213 231.936 63.02 231.8 62.8C231.664 62.58 231.158 62.414 230.676 62.432C230.08 62.453 229.992 62.536 230.4 62.692ZM168.6 63.6L167.8 63.944H168.6C169.04 63.944 169.76 63.789 170.2 63.6L171 63.256H170.2C169.76 63.256 169.04 63.411 168.6 63.6ZM165.6 64.4C165.067 64.745 165.067 64.788 165.6 64.788C165.93 64.788 166.47 64.613 166.8 64.4C167.333 64.055 167.333 64.012 166.8 64.012C166.47 64.012 165.93 64.187 165.6 64.4ZM237 64.4C238.196 64.914 239.195 64.914 238.4 64.4C238.07 64.187 237.44 64.022 237 64.034L236.2 64.056L237 64.4ZM163 65.2C162.229 65.531 162.231 65.545 163.076 65.572C163.558 65.587 164.064 65.42 164.2 65.2C164.492 64.727 164.101 64.727 163 65.2ZM157.4 66.87C155.64 67.523 153.949 68.139 153.643 68.238C153.336 68.337 153.174 68.507 153.281 68.614C153.465 68.798 161.185 66.149 161.56 65.773C161.99 65.344 160.344 65.777 157.4 66.87ZM244.2 66.8C244.64 66.989 245.27 67.144 245.6 67.144C245.978 67.144 245.904 67.017 245.4 66.8C244.96 66.611 244.33 66.456 244 66.456C243.622 66.456 243.696 66.583 244.2 66.8ZM150.8 69.487C150.03 69.829 149.628 70.191 149.906 70.29C150.185 70.389 150.995 70.098 151.706 69.642C153.218 68.674 152.794 68.601 150.8 69.487ZM253.6 70.4C254.37 70.822 255.18 71.166 255.4 71.166C255.62 71.166 255.17 70.822 254.4 70.4C253.63 69.978 252.82 69.634 252.6 69.634C252.38 69.634 252.83 69.978 253.6 70.4ZM325.048 71.722C322.445 74.419 316.547 80.835 311.002 87C308.628 89.64 304.758 93.87 302.402 96.4C300.047 98.93 297.534 101.675 296.818 102.5L295.517 104H267.439C246.353 104 239.242 103.882 238.887 103.527C238.626 103.266 238.305 103.162 238.172 103.294C237.136 104.331 240.602 104.465 267.536 104.432L295.4 104.397L298.6 101.082C300.36 99.259 303.15 96.253 304.8 94.403C306.45 92.553 308.615 90.22 309.611 89.22C310.607 88.219 311.71 86.95 312.063 86.4C312.595 85.572 317.1 80.737 324.3 73.268C325.015 72.527 325.6 71.835 325.6 71.731C325.6 70.564 327.162 70.196 332.571 70.089C340.317 69.937 340.676 69.702 333.248 69.646L327.096 69.6L325.048 71.722ZM346.7 69.882C347.195 69.978 348.005 69.978 348.5 69.882C348.995 69.787 348.59 69.709 347.6 69.709C346.61 69.709 346.205 69.787 346.7 69.882ZM353.9 69.882C355.304 70.153 353.735 73.6 352.209 73.6C351.906 73.6 351.6 73.854 351.529 74.164C351.421 74.637 347.691 78.803 342.2 84.586C341.54 85.281 339.829 87.098 338.398 88.625C336.967 90.151 333.257 94.1 330.154 97.4C327.052 100.7 323.993 103.987 323.357 104.705C320.432 108.004 317.981 110.662 315.4 113.333C311.719 117.142 305.208 124.217 304.568 125.101C304.29 125.486 302.653 127.278 300.931 129.084L297.798 132.367L293.999 132.501L290.2 132.634L294.025 132.717C297.288 132.788 297.963 132.69 298.625 132.052C299.83 130.89 304.705 125.637 307.8 122.165C309.34 120.438 312.31 117.219 314.401 115.012C319.614 109.509 322.771 106.099 327 101.401C329.924 98.153 332.561 95.308 337.2 90.399C337.31 90.283 338.93 88.57 340.8 86.594C356.541 69.956 356.888 69.512 354.076 69.654C353.134 69.702 353.112 69.73 353.9 69.882ZM256 71.353C256 71.578 260.217 73.603 260.64 73.581C260.838 73.571 260.01 73.039 258.8 72.4C256.682 71.281 256 71.026 256 71.353ZM192.261 72.072C191.194 72.222 190.211 72.455 190.076 72.591C189.772 72.895 198.336 72.378 199.296 72.035C200.23 71.7 194.7 71.73 192.261 72.072ZM142.801 73.227C141.591 73.893 140.421 74.634 140.201 74.873C139.883 75.217 144.923 72.643 145.567 72.132C146.269 71.575 144.597 72.236 142.801 73.227ZM211 72.4C211.66 72.568 212.74 72.705 213.4 72.705H214.6L213.4 72.4C212.74 72.232 211.66 72.095 211 72.095H209.8L211 72.4ZM184.2 73.2L183 73.505L184.2 73.53C184.86 73.543 186.12 73.405 187 73.223L188.6 72.892L187 72.893C186.12 72.894 184.86 73.032 184.2 73.2ZM216.8 73.2C217.35 73.376 218.34 73.517 219 73.513L220.2 73.505L219 73.2C218.34 73.032 217.35 72.891 216.8 72.887L215.8 72.88L216.8 73.2ZM178.8 74L177.8 74.32H178.8C179.35 74.32 180.25 74.176 180.8 74L181.8 73.68H180.8C180.25 73.68 179.35 73.824 178.8 74ZM222.2 73.966C222.64 74.174 223.648 74.356 224.44 74.372C225.232 74.387 226.457 74.601 227.161 74.846C227.865 75.092 228.54 75.194 228.661 75.073C228.968 74.765 226.224 74.082 223.6 73.814C222.067 73.657 221.643 73.703 222.2 73.966ZM262.2 74.588C262.86 75.129 263.62 75.578 263.889 75.586C264.159 75.594 266.319 76.779 268.689 78.219C271.06 79.66 272.617 80.515 272.149 80.119C271.165 79.287 268.429 77.587 265 75.677C263.68 74.941 262.429 74.173 262.22 73.97C262.011 73.766 261.651 73.601 261.42 73.602C261.189 73.603 261.54 74.047 262.2 74.588ZM175.424 74.613C174.657 75.192 174.658 75.2 175.447 75.2C175.887 75.2 176.596 74.936 177.024 74.613C177.79 74.033 177.789 74.025 177 74.025C176.56 74.025 175.851 74.29 175.424 74.613ZM229.626 75.184C229.286 75.394 229.475 75.582 230.209 75.767C231.541 76.101 231.802 75.918 230.846 75.322C230.451 75.075 229.902 75.013 229.626 75.184ZM138.58 75.567C138.371 75.769 137.12 76.519 135.8 77.233C133.384 78.541 127.743 82.173 127 82.9C126.186 83.696 129.462 81.829 131.398 80.394C132.499 79.577 134.66 78.234 136.2 77.409C139.137 75.836 140.046 75.2 139.36 75.2C139.14 75.2 138.789 75.365 138.58 75.567ZM171.6 75.6C170.818 76.106 172.624 76.106 173.8 75.6C174.487 75.305 174.43 75.253 173.4 75.234C172.74 75.222 171.93 75.387 171.6 75.6ZM168.6 76.4C168.096 76.617 168.022 76.744 168.4 76.744C168.73 76.744 169.36 76.589 169.8 76.4C170.304 76.183 170.378 76.056 170 76.056C169.67 76.056 169.04 76.211 168.6 76.4ZM233.2 76.455C233.97 76.69 234.96 77.018 235.4 77.185C236.919 77.763 239.058 78.4 239.428 78.386C240.15 78.358 237.788 77.228 236.98 77.214C236.529 77.206 235.989 77.039 235.78 76.841C235.571 76.644 234.59 76.38 233.6 76.256C231.84 76.035 231.831 76.039 233.2 76.455ZM166 77.2C165.467 77.545 165.467 77.588 166 77.588C166.33 77.588 166.87 77.413 167.2 77.2C167.733 76.855 167.733 76.812 167.2 76.812C166.87 76.812 166.33 76.987 166 77.2ZM163.6 78C163.067 78.345 163.067 78.388 163.6 78.388C163.93 78.388 164.47 78.213 164.8 78C165.333 77.655 165.333 77.612 164.8 77.612C164.47 77.612 163.93 77.787 163.6 78ZM161.2 78.8C160.667 79.145 160.667 79.188 161.2 79.188C161.53 79.188 162.07 79.013 162.4 78.8C162.933 78.455 162.933 78.412 162.4 78.412C162.07 78.412 161.53 78.587 161.2 78.8ZM242 79.256C243.21 79.704 244.963 80.415 245.896 80.835C246.828 81.256 247.818 81.587 248.096 81.572C249.179 81.511 241.594 78.418 240.4 78.434C240.07 78.438 240.79 78.808 242 79.256ZM156.934 80.278C156.457 80.371 155.968 80.706 155.846 81.023C155.567 81.751 155.55 81.753 157.429 80.816C158.936 80.064 158.798 79.914 156.934 80.278ZM273.2 80.958C273.2 81.045 274.11 81.701 275.223 82.415C277.745 84.033 277.46 84.328 273.198 84.509L269.8 84.653L273.568 84.627C278.068 84.595 278.38 84.241 275.664 82.247C273.827 80.898 273.2 80.571 273.2 80.958ZM248.892 81.675C248.979 81.936 249.264 82.221 249.525 82.308C249.818 82.406 249.907 82.223 249.757 81.833C249.478 81.106 248.652 80.955 248.892 81.675ZM149.599 84.14C143.766 87.043 138.405 90.281 133.514 93.854C131.597 95.254 129.921 96.4 129.789 96.4C129.658 96.4 128.076 97.689 126.275 99.263C119.299 105.362 114.4 110.333 110.6 115.167C109.5 116.567 108.043 118.361 107.362 119.156C106.216 120.493 103.617 124.329 102.59 126.2C102.348 126.64 101.814 127.54 101.402 128.2C99.701 130.926 101.697 128.296 104.317 124.359C111.674 113.301 122.006 102.423 131.5 95.737C140.139 89.653 143.347 87.691 150.024 84.404C152.737 83.069 155.041 81.892 155.145 81.788C155.717 81.216 154.066 81.916 149.599 84.14ZM250.4 82.589C250.4 82.906 253.3 84.033 253.528 83.805C253.641 83.692 253.635 83.6 253.516 83.6C253.396 83.6 252.646 83.328 251.849 82.995C251.052 82.662 250.4 82.479 250.4 82.589ZM124.4 84.62C121.682 86.752 119.559 88.498 118.978 89.079C118.692 89.366 118.25 89.6 117.996 89.6C117.334 89.6 104.68 102.404 101.598 106.193C100.126 108.002 99.465 109.042 100.073 108.593C100.663 108.157 101.319 107.44 101.532 107C102.292 105.427 115.533 91.796 117.6 90.458C119.95 88.938 126.915 83.194 126.396 83.204C126.288 83.206 125.39 83.843 124.4 84.62ZM254.261 84.5C254.364 84.665 256.642 84.771 259.324 84.736C264.623 84.666 264.044 84.489 257.938 84.312C255.813 84.25 254.159 84.335 254.261 84.5ZM193.8 96.418C192.48 96.574 194.46 96.617 198.2 96.513C201.94 96.409 205.741 96.496 206.647 96.707C207.553 96.919 208.993 96.972 209.847 96.826C213.965 96.122 199.428 95.753 193.8 96.418ZM187 97.2L185.8 97.505L187 97.525C187.66 97.535 188.56 97.389 189 97.2L189.8 96.856L189 96.875C188.56 96.886 187.66 97.032 187 97.2ZM215 97.223C217.137 97.665 218.604 97.65 217.2 97.2C216.65 97.024 215.57 96.883 214.8 96.886L213.4 96.892L215 97.223ZM182.2 98L181 98.305L182.2 98.325C182.86 98.335 183.76 98.189 184.2 98L185 97.656L184.2 97.675C183.76 97.686 182.86 97.832 182.2 98ZM219.8 98C220.24 98.189 220.96 98.344 221.4 98.344H222.2L221.4 98C220.96 97.811 220.24 97.656 219.8 97.656H219L219.8 98ZM178.8 98.8C178.267 99.145 178.267 99.188 178.8 99.188C179.13 99.188 179.67 99.013 180 98.8C180.533 98.455 180.533 98.412 180 98.412C179.67 98.412 179.13 98.587 178.8 98.8ZM223.4 98.8C223.84 98.989 224.47 99.144 224.8 99.144C225.178 99.144 225.104 99.017 224.6 98.8C224.16 98.611 223.53 98.456 223.2 98.456C222.822 98.456 222.896 98.583 223.4 98.8ZM176.2 99.599C175.76 99.788 174.884 100.055 174.253 100.191C173.622 100.327 173.193 100.526 173.3 100.633C173.596 100.929 176.837 100.123 177.328 99.632C177.834 99.126 177.332 99.111 176.2 99.599ZM226.4 99.6C226.73 99.813 227.36 99.978 227.8 99.966L228.6 99.944L227.8 99.6C226.604 99.086 225.605 99.086 226.4 99.6ZM171.2 101.2C170.667 101.545 170.667 101.588 171.2 101.588C171.53 101.588 172.07 101.413 172.4 101.2C172.933 100.855 172.933 100.812 172.4 100.812C172.07 100.812 171.53 100.987 171.2 101.2ZM231.4 101.2C232.596 101.714 233.595 101.714 232.8 101.2C232.47 100.987 231.84 100.822 231.4 100.834L230.6 100.856L231.4 101.2ZM168.2 102.4C167.54 102.808 166.717 103.155 166.371 103.171C165.549 103.209 162.436 104.763 163.14 104.784C163.436 104.793 164.246 104.546 164.94 104.234C165.633 103.923 166.861 103.464 167.668 103.214C168.475 102.964 169.352 102.498 169.617 102.18C170.262 101.402 169.665 101.495 168.2 102.4ZM161.43 105.151C161.311 105.345 160.565 105.81 159.774 106.186C158.983 106.561 158.426 106.959 158.536 107.069C158.736 107.269 162.4 105.271 162.4 104.962C162.4 104.654 161.646 104.801 161.43 105.151ZM153.184 109.723C147.223 113.544 141.149 118.335 137.4 122.172C133.592 126.07 130.236 130 130.714 130C130.931 130 131.383 129.595 131.718 129.1C132.054 128.605 132.839 127.653 133.464 126.984C134.089 126.316 135.184 125.031 135.898 124.129C137.051 122.674 141.664 118.604 145 116.099C145.66 115.604 147.46 114.244 149 113.079C150.54 111.913 152.835 110.37 154.1 109.65C156.253 108.425 156.814 107.968 156.1 108.023C155.935 108.035 154.623 108.8 153.184 109.723ZM96.6 112.429C93.578 116.657 90.395 121.977 91.034 121.732C91.345 121.612 91.6 121.346 91.6 121.141C91.6 120.936 91.933 120.28 92.34 119.684C92.748 119.088 94.03 117.115 95.191 115.3C96.351 113.485 97.413 111.999 97.55 111.997C97.688 111.996 98.107 111.456 98.481 110.797C99.704 108.65 98.646 109.567 96.6 112.429ZM89.508 123.3C89.187 123.795 88.707 124.65 88.44 125.2C87.76 126.603 88.994 125.106 89.841 123.5C90.539 122.174 90.323 122.044 89.508 123.3ZM85.442 130.837C84.686 132.351 84.657 132.536 85.225 132.185C85.711 131.884 86.508 129.974 86.253 129.72C86.16 129.626 85.795 130.129 85.442 130.837ZM100.141 130.073C99.233 131.482 97.616 134.949 97.787 135.12C97.894 135.227 98.109 134.974 98.266 134.557C98.423 134.141 99.066 132.923 99.694 131.852C100.685 130.161 101.069 128.634 100.141 130.073ZM129.043 131.463C126.783 134.563 124.022 138.862 124.845 138C125.37 137.45 126.498 135.92 127.35 134.6C128.203 133.28 129.27 131.795 129.72 131.3C130.171 130.805 130.373 130.406 130.17 130.413C129.966 130.419 129.46 130.892 129.043 131.463ZM212.4 131.6C212.4 131.84 213.992 132 216.376 132C218.596 132 220.462 131.823 220.6 131.6C220.759 131.343 219.337 131.2 216.624 131.2C214.075 131.2 212.4 131.359 212.4 131.6ZM195.6 133.177C193.51 133.299 203.77 133.348 218.4 133.285C233.03 133.221 245.45 133.113 246 133.044C247.797 132.82 199.503 132.947 195.6 133.177ZM189.418 133.894C188.769 133.99 187.874 134.323 187.429 134.634C186.537 135.26 187.208 135.413 188.305 134.834C188.687 134.633 189.63 134.291 190.4 134.075C191.854 133.667 191.456 133.593 189.418 133.894ZM82.644 136.844C82.057 138.2 81.641 139.374 81.721 139.454C81.891 139.625 82.52 138.413 83.387 136.239C84.408 133.682 83.802 134.176 82.644 136.844ZM184.4 135.6C183.867 135.945 183.867 135.988 184.4 135.988C184.73 135.988 185.27 135.813 185.6 135.6C186.133 135.255 186.133 135.212 185.6 135.212C185.27 135.212 184.73 135.387 184.4 135.6ZM180.46 137.004C179.283 137.552 178.168 138 177.981 138C177.794 138 177.137 138.474 176.521 139.054C175.585 139.934 175.901 139.835 178.434 138.454C180.103 137.544 181.757 136.8 182.111 136.8C182.464 136.8 182.864 136.62 183 136.4C183.383 135.78 182.782 135.923 180.46 137.004ZM95.824 138.526C95.406 139.227 95.021 139.98 94.97 140.2C94.919 140.42 94.76 140.96 94.617 141.4C94.474 141.84 94.918 141.147 95.605 139.86C96.936 137.364 97.095 136.397 95.824 138.526ZM122.653 140.791C121.533 142.483 121.347 143.004 122.006 142.596C122.424 142.338 124.138 139.2 123.861 139.2C123.776 139.2 123.232 139.916 122.653 140.791ZM170.453 143.075C165.307 146.998 162.623 149.537 159.959 153.004C157.248 156.53 155.119 159.653 155.301 159.834C155.388 159.922 156.477 158.51 157.72 156.697C161.755 150.81 166.868 145.795 172.9 141.807C174.165 140.971 175.2 140.132 175.2 139.943C175.2 139.44 175.366 139.331 170.453 143.075ZM80.677 141.534C79.856 143.395 79.821 143.837 80.551 143.106C81.06 142.597 81.861 140 81.509 140C81.424 140 81.049 140.69 80.677 141.534ZM120.614 144.235C120.241 144.804 120.027 145.361 120.139 145.472C120.25 145.583 120.629 145.118 120.981 144.437C121.759 142.933 121.544 142.815 120.614 144.235ZM92.618 145.818C92.272 146.646 92.071 147.405 92.171 147.505C92.271 147.605 92.636 147.009 92.982 146.182C93.328 145.354 93.529 144.595 93.429 144.495C93.329 144.395 92.964 144.991 92.618 145.818ZM78.6 146.8C78.45 147.273 78.417 147.75 78.527 147.86C78.637 147.97 78.85 147.673 79 147.2C79.15 146.727 79.183 146.25 79.073 146.14C78.963 146.03 78.75 146.327 78.6 146.8ZM91.467 148.267C91.32 148.413 91.211 148.908 91.225 149.367C91.249 150.133 91.282 150.123 91.634 149.242C92.026 148.263 91.944 147.789 91.467 148.267ZM77.8 149.2C77.65 149.673 77.617 150.15 77.727 150.26C77.837 150.37 78.05 150.073 78.2 149.6C78.35 149.127 78.383 148.65 78.273 148.54C78.163 148.43 77.95 148.727 77.8 149.2ZM76.992 151.688L76.746 152.671L55.673 152.936C7.22499 153.545 3.97199 153.705 5.66599 155.399C5.80499 155.539 6.26399 155.284 6.68399 154.832C7.43699 154.025 7.88999 154.008 35.824 153.76C51.431 153.621 66.81 153.437 70 153.35C73.19 153.264 76.094 153.194 76.453 153.196C76.85 153.199 77.19 152.767 77.318 152.1C77.585 150.708 77.322 150.375 76.992 151.688ZM116.634 152.691C116.259 153.741 115.771 154.933 115.548 155.339C115.071 156.213 115.316 156.643 115.873 155.91C116.343 155.291 117.669 151.136 117.463 150.929C117.382 150.848 117.009 151.641 116.634 152.691ZM89.873 152.553C89.723 152.945 89.611 153.566 89.625 153.933C89.642 154.375 89.781 154.274 90.037 153.634C90.249 153.103 90.361 152.482 90.285 152.254C90.209 152.027 90.024 152.161 89.873 152.553ZM89.029 155.829C88.881 156.415 88.851 156.984 88.961 157.094C89.071 157.204 89.281 156.815 89.429 156.229C89.576 155.642 89.606 155.073 89.496 154.963C89.386 154.853 89.176 155.242 89.029 155.829ZM5.04399 156.967C4.91099 157.499 4.96999 158.354 5.17499 158.867C5.48799 159.648 5.55299 159.49 5.57499 157.9C5.60299 155.809 5.41699 155.482 5.04399 156.967ZM114.6 157.6C114.45 158.073 114.417 158.55 114.527 158.66C114.637 158.77 114.85 158.473 115 158C115.15 157.527 115.183 157.05 115.073 156.94C114.963 156.83 114.75 157.127 114.6 157.6ZM88.2 158.8C88.05 159.273 88.017 159.75 88.127 159.86C88.237 159.97 88.45 159.673 88.6 159.2C88.75 158.727 88.783 158.25 88.673 158.14C88.563 158.03 88.35 158.327 88.2 158.8ZM113.8 160C113.65 160.473 113.617 160.95 113.727 161.06C113.837 161.17 114.05 160.873 114.2 160.4C114.35 159.927 114.383 159.45 114.273 159.34C114.163 159.23 113.95 159.527 113.8 160ZM87.195 161.179C86.862 161.591 86.052 162.008 85.395 162.104C84.281 162.268 84.299 162.284 85.651 162.34C87.081 162.399 88.221 161.646 87.938 160.828C87.862 160.609 87.528 160.767 87.195 161.179ZM154.222 161.422C153.845 161.998 153.616 162.549 153.714 162.647C153.812 162.745 154.2 162.354 154.578 161.778C154.955 161.202 155.184 160.651 155.086 160.553C154.988 160.455 154.6 160.846 154.222 161.422ZM7.99999 161.989C8.97799 162.313 13.096 162.542 12.767 162.255C12.675 162.175 11.34 162.008 9.79999 161.884C8.09599 161.747 7.39099 161.788 7.99999 161.989ZM113 162.4C112.85 162.873 112.817 163.35 112.927 163.46C113.037 163.57 113.25 163.273 113.4 162.8C113.55 162.327 113.583 161.85 113.473 161.74C113.363 161.63 113.15 161.927 113 162.4ZM27.529 162.7C34.86 162.761 46.74 162.761 53.929 162.7C61.118 162.639 55.12 162.589 40.6 162.589C26.08 162.589 20.198 162.639 27.529 162.7ZM112.2 165.2C112.05 165.673 112.017 166.15 112.127 166.26C112.237 166.37 112.45 166.073 112.6 165.6C112.75 165.127 112.783 164.65 112.673 164.54C112.563 164.43 112.35 164.727 112.2 165.2ZM151.872 166.219C151.502 166.993 151.213 167.846 151.228 168.114C151.244 168.381 151.608 167.809 152.037 166.842C152.971 164.737 152.831 164.208 151.872 166.219ZM111.473 167.753C111.323 168.145 111.211 168.766 111.225 169.133C111.242 169.575 111.381 169.474 111.637 168.834C111.849 168.303 111.961 167.682 111.885 167.454C111.809 167.227 111.624 167.361 111.473 167.753ZM150.5 169.423C150.225 169.722 150 170.323 150 170.76C150 171.196 149.82 171.664 149.6 171.8C149.106 172.105 149.073 172.8 149.553 172.8C149.851 172.8 151.295 169.148 151.075 168.949C151.034 168.911 150.775 169.125 150.5 169.423ZM110.588 172.138C110.439 173.135 110.399 174.186 110.5 174.475C110.6 174.764 110.818 174.043 110.982 172.874C111.147 171.705 111.187 170.654 111.071 170.538C110.955 170.422 110.738 171.142 110.588 172.138ZM149.029 174.229C148.881 174.815 148.851 175.384 148.961 175.494C149.071 175.604 149.281 175.215 149.429 174.629C149.576 174.042 149.606 173.473 149.496 173.363C149.386 173.253 149.176 173.642 149.029 174.229ZM109.8 177.6C109.646 178.51 109.611 179.344 109.721 179.454C109.831 179.564 110.046 178.91 110.2 178C110.354 177.09 110.389 176.256 110.279 176.146C110.169 176.036 109.954 176.69 109.8 177.6ZM148.2 178C148.046 178.91 148.011 179.744 148.121 179.854C148.231 179.964 148.446 179.31 148.6 178.4C148.754 177.49 148.789 176.656 148.679 176.546C148.569 176.436 148.354 177.09 148.2 178ZM9.19999 179.601C8.42999 179.764 9.77999 179.805 12.2 179.693C14.62 179.58 16.675 179.424 16.767 179.344C17.07 179.081 10.626 179.3 9.19999 179.601ZM75.927 179.618C83.274 179.948 84.393 180.39 84.406 182.97C84.409 183.646 84.604 184.47 84.838 184.8C85.154 185.244 85.203 184.933 85.026 183.6C84.845 182.237 84.45 181.484 83.4 180.5L82.012 179.2L75.706 179.262L69.4 179.325L75.927 179.618ZM147.415 181.5C147.053 182.439 147.128 195.91 147.503 197.292C147.666 197.893 147.8 194.428 147.8 189.592C147.8 184.757 147.774 180.8 147.743 180.8C147.711 180.8 147.564 181.115 147.415 181.5ZM109.061 184.3C108.75 187.593 108.787 193.03 109.142 196C109.293 197.27 109.419 194.69 109.439 189.9C109.478 180.831 109.44 180.279 109.061 184.3ZM5.10899 183.506C5.00699 183.895 5.06299 184.57 5.23399 185.006C5.46999 185.611 5.54999 185.443 5.57199 184.3C5.60199 182.693 5.40799 182.361 5.10899 183.506ZM83.437 187.146L82.356 188.706L64.678 188.99C54.955 189.145 38.397 189.212 27.882 189.136C17.366 189.061 9.44599 189.144 10.282 189.321C11.117 189.497 27.581 189.587 46.868 189.521L81.936 189.4L83.005 188.4C84.151 187.327 84.973 186.04 84.692 185.758C84.597 185.663 84.032 186.288 83.437 187.146ZM5.61299 186.138C5.58599 186.86 7.28899 188.799 7.92699 188.773C8.43399 188.753 8.37799 188.639 7.69999 188.312C7.20499 188.073 6.79999 187.76 6.79999 187.615C6.79999 187.212 5.62699 185.753 5.61299 186.138ZM16.8 200.359C16.224 200.52 17.283 200.638 19.294 200.639C21.216 200.64 22.566 200.499 22.294 200.326C21.699 199.948 18.196 199.969 16.8 200.359ZM109.653 200.6C109.596 201.759 110.733 208.469 111.036 208.757C111.176 208.89 111.155 208.19 110.989 207.2C110.822 206.21 110.712 204.698 110.743 203.84C110.774 202.983 110.639 202.083 110.443 201.84C110.246 201.598 109.998 201.04 109.889 200.6L109.693 199.8L109.653 200.6ZM148.068 200.6C148.074 201.04 148.224 201.85 148.4 202.4L148.72 203.4L148.732 202.4C148.738 201.85 148.589 201.04 148.4 200.6L148.056 199.8L148.068 200.6ZM24.276 201.581C24.977 202.009 26.237 203.088 27.076 203.979C27.914 204.87 28.724 205.599 28.877 205.599C29.407 205.601 25.794 201.914 24.721 201.359C23.117 200.53 22.806 200.685 24.276 201.581ZM11.107 203.7C9.40699 205.936 8.14699 208.71 9.39999 207.457C9.72999 207.127 9.99999 206.61 9.99999 206.307C9.99999 206.005 10.556 205.002 11.235 204.079C11.914 203.155 12.385 202.4 12.282 202.4C12.179 202.4 11.65 202.985 11.107 203.7ZM149.045 204.992C149.268 206.562 150.353 209.076 150.384 208.095C150.393 207.817 150.235 207.277 150.034 206.895C149.833 206.513 149.477 205.57 149.243 204.8L148.818 203.4L149.045 204.992ZM59.315 205.977C81.371 206.17 84.886 206.281 85.245 206.8C85.615 207.333 85.643 207.333 85.499 206.8C85.247 205.868 80.245 205.686 55.8 205.721L33.8 205.753L59.315 205.977ZM85.668 208.8C85.662 209.35 85.811 210.16 86 210.6L86.344 211.4L86.332 210.6C86.326 210.16 86.176 209.35 86 208.8L85.68 207.8L85.668 208.8ZM8.51999 210.8C8.51999 212.01 8.59499 212.505 8.68699 211.9C8.77799 211.295 8.77799 210.305 8.68699 209.7C8.59499 209.095 8.51999 209.59 8.51999 210.8ZM111.353 211.007C111.507 211.663 111.807 212.995 112.017 213.967C112.596 216.631 112.835 216.449 112.534 213.572C112.387 212.161 111.997 210.74 111.669 210.411C111.139 209.882 111.103 209.949 111.353 211.007ZM151.214 211.121C151.171 212.703 157.203 222.853 159.226 224.6C159.735 225.04 159.344 224.32 158.357 223C155.792 219.569 154.238 217.016 152.633 213.594C151.861 211.947 151.222 210.834 151.214 211.121ZM86.468 213.2C86.462 213.75 86.611 214.56 86.8 215L87.144 215.8L87.132 215C87.126 214.56 86.976 213.75 86.8 213.2L86.48 212.2L86.468 213.2ZM34 214.8C34 215.02 34.54 215.2 35.2 215.2C35.86 215.2 36.4 215.02 36.4 214.8C36.4 214.58 35.86 214.4 35.2 214.4C34.54 214.4 34 214.58 34 214.8ZM9.61499 215.9C9.62299 216.065 10.273 216.92 11.059 217.8L12.487 219.4L11.176 217.5C9.87699 215.618 9.58599 215.32 9.61499 215.9ZM27.806 216.688L27.104 217.8L28.03 216.911C28.539 216.422 28.855 215.922 28.732 215.799C28.609 215.676 28.192 216.076 27.806 216.688ZM64.9 215.896C66.165 215.975 68.235 215.975 69.5 215.896C70.765 215.816 69.73 215.751 67.2 215.751C64.67 215.751 63.635 215.816 64.9 215.896ZM73.015 216.009C74.112 216.343 74.281 216.624 74.752 218.889C75.594 222.937 75.966 223.68 75.709 220.8C75.582 219.37 75.344 218.11 75.179 218C75.015 217.89 74.818 217.35 74.74 216.8C74.624 215.97 74.362 215.786 73.2 215.719L71.8 215.639L73.015 216.009ZM87.007 216.481C86.847 216.875 86.998 217.547 87.364 218.07C87.953 218.911 87.998 218.92 87.972 218.189C87.92 216.725 87.333 215.686 87.007 216.481ZM112.812 217.2C112.812 217.53 112.987 218.07 113.2 218.4C113.545 218.933 113.588 218.933 113.588 218.4C113.588 218.07 113.413 217.53 113.2 217.2C112.855 216.667 112.812 216.667 112.812 217.2ZM25.148 219.389C24.168 220.153 22.653 220.945 21.783 221.149C20.287 221.499 20.268 221.522 21.435 221.56C22.506 221.595 27.2 218.841 27.2 218.178C27.2 217.842 26.928 218.003 25.148 219.389ZM88.056 219.8C88.056 220.24 88.211 220.96 88.4 221.4L88.744 222.2V221.4C88.744 220.96 88.589 220.24 88.4 219.8L88.056 219V219.8ZM113.612 219.6C113.612 219.93 113.787 220.47 114 220.8C114.345 221.333 114.388 221.333 114.388 220.8C114.388 220.47 114.213 219.93 114 219.6C113.655 219.067 113.612 219.067 113.612 219.6ZM14 220.195C14 220.449 16.765 221.603 17.349 221.591C17.597 221.586 17.015 221.226 16.056 220.791C14.196 219.947 14 219.89 14 220.195ZM88.856 222.8C88.856 223.13 89.011 223.76 89.2 224.2C89.417 224.704 89.544 224.778 89.544 224.4C89.544 224.07 89.389 223.44 89.2 223C88.983 222.496 88.856 222.422 88.856 222.8ZM115.2 223.91C115.2 224.382 116.402 226.8 116.637 226.8C116.986 226.8 116.256 224.598 115.733 224.075C115.44 223.782 115.2 223.708 115.2 223.91ZM76.012 224.4C76.012 224.73 76.187 225.27 76.4 225.6C76.745 226.133 76.788 226.133 76.788 225.6C76.788 225.27 76.613 224.73 76.4 224.4C76.055 223.867 76.012 223.867 76.012 224.4ZM89.612 225.6C89.612 225.93 89.787 226.47 90 226.8C90.345 227.333 90.388 227.333 90.388 226.8C90.388 226.47 90.213 225.93 90 225.6C89.655 225.067 89.612 225.067 89.612 225.6ZM161.222 227.067C163.451 229.44 165.77 231.728 167.027 232.796C167.672 233.343 166.49 231.973 164.4 229.75C162.31 227.527 160.43 225.684 160.222 225.654C160.013 225.624 160.463 226.26 161.222 227.067ZM76.812 227.2C76.812 227.53 76.987 228.07 77.2 228.4C77.545 228.933 77.588 228.933 77.588 228.4C77.588 228.07 77.413 227.53 77.2 227.2C76.855 226.667 76.812 226.667 76.812 227.2ZM116.8 227.596C116.8 228.323 118.039 230.494 118.303 230.231C118.437 230.096 118.334 229.774 118.073 229.513C117.813 229.253 117.6 228.727 117.6 228.344C117.6 227.961 117.42 227.536 117.2 227.4C116.98 227.264 116.8 227.352 116.8 227.596ZM90.412 228C90.412 228.33 90.587 228.87 90.8 229.2C91.145 229.733 91.188 229.733 91.188 229.2C91.188 228.87 91.013 228.33 90.8 228C90.455 227.467 90.412 227.467 90.412 228ZM77.6 229.977C77.6 230.216 77.761 230.723 77.959 231.105C78.156 231.487 78.513 232.25 78.751 232.8C79.125 233.662 79.149 233.58 78.931 232.21C78.7 230.766 77.6 228.919 77.6 229.977ZM91.212 230.4C91.212 230.73 91.387 231.27 91.6 231.6C91.945 232.133 91.988 232.133 91.988 231.6C91.988 231.27 91.813 230.73 91.6 230.4C91.255 229.867 91.212 229.867 91.212 230.4ZM118.4 230.952C118.4 231.287 120.882 235.774 121.303 236.2C121.555 236.455 121.553 236.31 121.297 235.8C121.076 235.36 120.514 234.156 120.049 233.124C119.325 231.52 118.4 230.302 118.4 230.952ZM234.4 234.371C232.621 235.896 226.909 239.568 225.443 240.129C225.026 240.288 224.791 240.524 224.919 240.653C225.048 240.781 226.222 240.237 227.529 239.443C228.836 238.649 230.011 238 230.141 238C230.549 238 234.025 235.457 235.471 234.1C237.401 232.289 236.588 232.495 234.4 234.371ZM244.796 240.417C248.978 244.607 252.4 248.207 252.4 248.417C252.4 248.628 252.667 248.8 252.994 248.8C253.321 248.8 254.065 249.52 254.647 250.4C255.23 251.28 255.831 252 255.984 252C256.136 252 258.317 254.091 260.83 256.648C263.344 259.204 267.986 263.839 271.148 266.948C278.262 273.945 293.567 289.451 296.227 292.356C297.312 293.542 299.367 295.612 300.794 296.956C304.509 300.457 305.914 301.904 308.4 304.788C309.61 306.193 311.045 307.715 311.589 308.171C313.381 309.673 317.2 313.649 317.2 314.013C317.2 314.216 311.802 314.354 304.73 314.332L292.261 314.294L271.63 293.657C260.284 282.307 250.336 272.42 249.524 271.685L248.047 270.35L245.724 271.624C243.406 272.894 242.401 273.6 242.908 273.6C243.259 273.6 246.091 272.028 246.58 271.562C247.729 270.466 249.125 271.722 270.4 293L292.197 314.8H304.899C316.233 314.8 317.6 314.732 317.6 314.165C317.6 313.543 313.59 309.266 302.8 298.381C299.83 295.385 284.001 279.404 267.625 262.867C251.249 246.33 237.702 232.8 237.521 232.8C237.341 232.8 240.614 236.228 244.796 240.417ZM168.4 233.794C168.4 234.05 172.906 237.429 174 237.993C174.55 238.276 174.91 238.411 174.8 238.292C174.394 237.853 168.4 233.64 168.4 233.794ZM92.8 234.494C92.8 234.968 94.912 239.621 95.061 239.473C95.241 239.292 93.595 235.147 93.133 234.62C92.95 234.411 92.8 234.354 92.8 234.494ZM122.427 238.2C123.452 240.134 124.03 240.802 123.75 239.729C123.637 239.297 123.102 238.416 122.562 237.772L121.579 236.6L122.427 238.2ZM80.806 238.671C80.818 239.284 81.555 240.178 81.826 239.907C81.974 239.759 81.804 239.347 81.448 238.99C81.091 238.634 80.803 238.491 80.806 238.671ZM175.2 238.539C175.2 238.81 178.837 240.897 179.009 240.724C179.09 240.643 178.266 240.077 177.178 239.466C176.09 238.854 175.2 238.437 175.2 238.539ZM125.589 243.184C127.297 245.698 128.613 246.982 127.177 244.732C126.709 243.999 126.028 242.908 125.663 242.306C125.298 241.705 124.771 241.124 124.491 241.016C124.212 240.907 124.706 241.883 125.589 243.184ZM179.764 241.142C180.039 241.586 184.807 243.327 185.059 243.074C185.165 242.968 184.295 242.571 183.126 242.192C181.957 241.812 180.829 241.344 180.62 241.151C180.132 240.7 179.487 240.694 179.764 241.142ZM222.4 241.6C221.63 242.022 221.18 242.366 221.4 242.366C221.62 242.366 222.43 242.022 223.2 241.6C223.97 241.178 224.42 240.834 224.2 240.834C223.98 240.834 223.17 241.178 222.4 241.6ZM82.434 242.6C82.434 242.82 82.778 243.63 83.2 244.4C83.622 245.17 83.966 245.62 83.966 245.4C83.966 245.18 83.622 244.37 83.2 243.6C82.778 242.83 82.434 242.38 82.434 242.6ZM219 242.8L218.2 243.144L219 243.166C219.44 243.178 220.07 243.013 220.4 242.8C221.195 242.286 220.196 242.286 219 242.8ZM97.044 244.266C97.322 245.413 99.605 248.928 99.888 248.646C99.972 248.561 99.492 247.626 98.82 246.568C98.149 245.509 97.6 244.419 97.6 244.145C97.6 243.871 97.413 243.532 97.184 243.39C96.911 243.221 96.863 243.522 97.044 244.266ZM186.4 243.724C187.449 244.323 190.795 245.068 190.332 244.601C190.088 244.355 189.558 244.193 186.4 243.404L185.4 243.154L186.4 243.724ZM213.6 244.4L212.6 244.72L213.6 244.732C214.15 244.738 214.96 244.589 215.4 244.4L216.2 244.056L215.4 244.068C214.96 244.074 214.15 244.224 213.6 244.4ZM191.8 245.2C192.46 245.368 193.63 245.506 194.4 245.507L195.8 245.508L194.2 245.177C192.045 244.731 190.034 244.751 191.8 245.2ZM208.8 245.2L207.4 245.495L208.8 245.507C209.57 245.515 210.65 245.376 211.2 245.2L212.2 244.88L211.2 244.893C210.65 244.9 209.57 245.038 208.8 245.2ZM197.9 245.895C199.055 245.976 200.945 245.976 202.1 245.895C203.255 245.814 202.31 245.748 200 245.748C197.69 245.748 196.745 245.814 197.9 245.895ZM131.657 250.766C135.66 255.559 142.697 262.258 146.4 264.8C147.17 265.329 147.89 265.861 148 265.982C148.11 266.103 149.01 266.725 150 267.364C150.99 268.002 152.25 268.824 152.8 269.188C154.362 270.224 154.8 270.461 154.8 270.271C154.8 270.175 153.495 269.231 151.9 268.174C150.305 267.117 148.82 266.058 148.6 265.821C148.38 265.584 147.337 264.837 146.282 264.16C144.271 262.87 139.446 258.617 136.645 255.666C135.74 254.713 133.766 252.643 132.257 251.066L129.514 248.2L131.657 250.766ZM100.302 250.2C100.407 250.75 100.662 251.2 100.869 251.2C101.075 251.2 101.618 252.1 102.075 253.2C102.533 254.3 103.033 255.2 103.187 255.2C103.341 255.2 104.172 256.235 105.034 257.5C106.982 260.361 108.719 262.64 111.8 266.381C113.12 267.983 114.38 269.588 114.6 269.947C114.82 270.306 115.269 270.769 115.598 270.975C115.927 271.181 118.267 273.371 120.798 275.843C123.329 278.314 126.021 280.845 126.781 281.468C127.54 282.091 128.737 283.14 129.441 283.8C130.145 284.46 131.166 285.27 131.71 285.6C134.413 287.24 139.6 290.961 139.6 291.26C139.6 291.447 139.876 291.6 140.214 291.6C140.552 291.6 141.317 291.903 141.914 292.273C144.417 293.825 141.906 291.913 138.4 289.596C123.457 279.724 109.365 265.044 101.445 251.1C100.216 248.936 100.033 248.792 100.302 250.2ZM88.456 254.8C88.978 255.905 89.659 257.022 92.786 261.9C93.949 263.715 94.973 265.2 95.061 265.2C95.346 265.2 93.935 262.696 93.211 261.92C92.824 261.505 92.085 260.318 91.567 259.282C91.05 258.247 90.261 256.929 89.814 256.354C89.366 255.778 88.771 254.968 88.492 254.554C88.066 253.921 88.06 253.961 88.456 254.8ZM96.372 267.28C97.053 268.313 97.806 269.28 98.045 269.428C98.721 269.846 97.819 268.425 96.377 266.8L95.134 265.4L96.372 267.28ZM99.687 271.784C100.409 272.766 101.147 273.576 101.327 273.584C101.507 273.593 100.99 272.79 100.179 271.8C98.283 269.486 97.99 269.477 99.687 271.784ZM155.442 270.785C155.639 270.972 156.52 271.506 157.4 271.973L159 272.821L157.828 271.838C156.759 270.941 154.608 269.991 155.442 270.785ZM103.56 276.416C106.28 279.672 114.853 288.164 117.216 289.944C118.23 290.708 117.791 290.191 116.2 288.747C112.136 285.058 104.856 277.617 104.144 276.424C103.808 275.861 103.053 275.047 102.466 274.616C101.819 274.14 102.249 274.848 103.56 276.416ZM164.506 275.572C165.775 276.247 166.925 276.8 167.062 276.8C167.681 276.8 164.262 274.785 163.29 274.577C162.64 274.437 163.131 274.839 164.506 275.572ZM236.4 276.209C234.31 277.158 232.182 277.949 231.671 277.967C230.583 278.006 229.107 279.2 230.148 279.2C230.481 279.2 230.864 279.02 231 278.8C231.136 278.58 231.501 278.4 231.811 278.4C232.467 278.4 240.018 275.252 240.58 274.743C241.295 274.097 240.231 274.47 236.4 276.209ZM169.4 277.618C170.5 278.048 171.704 278.399 172.076 278.4C172.448 278.4 172.864 278.58 173 278.8C173.136 279.02 173.439 279.2 173.673 279.2C173.941 279.2 173.914 278.978 173.6 278.6C173.326 278.27 172.809 277.997 172.451 277.994C172.093 277.991 171.08 277.729 170.2 277.412C167.79 276.543 167.103 276.721 169.4 277.618ZM175.2 279.6C175.53 279.813 176.07 279.988 176.4 279.988C176.933 279.988 176.933 279.945 176.4 279.6C176.07 279.387 175.53 279.212 175.2 279.212C174.667 279.212 174.667 279.255 175.2 279.6ZM227 279.6L226.2 279.944L227 279.966C227.44 279.978 228.07 279.813 228.4 279.6C229.195 279.086 228.196 279.086 227 279.6ZM177.6 279.968C177.6 280.402 179.948 280.985 180.295 280.638C180.426 280.507 180.154 280.4 179.69 280.4C179.227 280.4 178.736 280.22 178.6 280C178.29 279.498 177.6 279.476 177.6 279.968ZM224.2 280.4L223.4 280.744L224.2 280.766C224.64 280.778 225.27 280.613 225.6 280.4C226.395 279.886 225.396 279.886 224.2 280.4ZM221 281.063C220.22 281.684 220.225 281.694 221.2 281.455C221.75 281.321 222.346 281.208 222.524 281.205C222.702 281.202 222.736 281.02 222.6 280.8C222.265 280.259 221.943 280.312 221 281.063ZM181.4 281.2C182.596 281.714 183.595 281.714 182.8 281.2C182.47 280.987 181.84 280.822 181.4 280.834L180.6 280.856L181.4 281.2ZM184.2 282C184.64 282.189 185.45 282.338 186 282.332L187 282.32L186 282C185.45 281.824 184.64 281.674 184.2 281.668L183.4 281.656L184.2 282ZM217.4 282L216.2 282.305L217.4 282.325C218.06 282.335 218.96 282.189 219.4 282L220.2 281.656L219.4 281.675C218.96 281.686 218.06 281.832 217.4 282ZM188.8 282.8C189.35 282.976 190.34 283.117 191 283.113L192.2 283.105L191 282.8C190.34 282.632 189.35 282.491 188.8 282.487L187.8 282.48L188.8 282.8ZM211.8 282.8L210.2 283.086L212 283.103C212.99 283.113 214.25 282.976 214.8 282.8C216.145 282.369 214.206 282.369 211.8 282.8ZM198.1 283.497C199.805 283.572 202.595 283.572 204.3 283.497C206.005 283.422 204.61 283.361 201.2 283.361C197.79 283.361 196.395 283.422 198.1 283.497ZM119.223 291.473C119.235 291.653 120.349 292.61 121.698 293.6C123.046 294.59 124.878 295.94 125.767 296.6L127.385 297.8L126.592 296.713C126.157 296.114 125.607 295.619 125.372 295.613C125.137 295.606 124.237 295.005 123.372 294.278C121.149 292.409 119.196 291.088 119.223 291.473ZM143.451 293.389C143.574 293.708 144.062 294.091 144.537 294.239C145.012 294.387 145.49 294.619 145.6 294.754C145.71 294.889 146.43 295.22 147.2 295.488C148.459 295.927 148.522 295.917 147.824 295.388C147.396 295.065 146.898 294.8 146.716 294.8C146.533 294.8 145.674 294.352 144.806 293.804C143.774 293.153 143.305 293.009 143.451 293.389ZM256.215 294.776C256.077 294.999 256.55 295.06 257.376 294.926C258.651 294.72 258.956 294.885 260.934 296.85C262.124 298.033 263.886 299.718 264.849 300.595C265.812 301.472 264.894 300.437 262.808 298.295C259.039 294.424 257.079 293.378 256.215 294.776ZM150.814 297.35C151.407 297.907 153.6 298.586 153.6 298.213C153.6 298.011 150.914 296.8 150.465 296.8C150.335 296.8 150.492 297.048 150.814 297.35ZM247.4 298.815C246.08 299.445 245.236 299.969 245.525 299.98C246.095 300.002 250.4 298.051 250.4 297.771C250.4 297.458 249.819 297.66 247.4 298.815ZM156.255 299.8C156.382 300.13 156.722 300.4 157.01 300.4C157.299 300.4 157.864 300.509 158.267 300.643C158.67 300.776 158.411 300.506 157.69 300.043C156.132 299.04 155.952 299.01 156.255 299.8ZM131.8 300.689C132.24 301.135 133.68 302.077 135 302.783C136.32 303.488 137.571 304.231 137.78 304.433C138.296 304.931 138.909 304.9 138.594 304.391C138.455 304.166 137.23 303.423 135.871 302.74C134.512 302.057 132.86 301.134 132.2 300.688L131 299.878L131.8 300.689ZM242.8 300.8C242.03 301.222 241.58 301.566 241.8 301.566C242.02 301.566 242.83 301.222 243.6 300.8C244.37 300.378 244.82 300.034 244.6 300.034C244.38 300.034 243.57 300.378 242.8 300.8ZM162 302C162.33 302.213 162.87 302.388 163.2 302.388C163.733 302.388 163.733 302.345 163.2 302C162.87 301.787 162.33 301.612 162 301.612C161.467 301.612 161.467 301.655 162 302ZM239.6 302C239.067 302.345 239.067 302.388 239.6 302.388C239.93 302.388 240.47 302.213 240.8 302C241.333 301.655 241.333 301.612 240.8 301.612C240.47 301.612 239.93 301.787 239.6 302ZM164.484 302.942C164.782 303.239 165.92 303.596 167.013 303.734L169 303.984L166.8 303.203C164.171 302.27 163.768 302.225 164.484 302.942ZM235.8 303.221L233.8 303.942L235.796 303.703C236.894 303.572 238.032 303.225 238.325 302.932C239.046 302.211 238.396 302.285 235.8 303.221ZM169.6 304.4C169.93 304.613 170.56 304.778 171 304.766L171.8 304.744L171 304.4C169.804 303.886 168.805 303.886 169.6 304.4ZM231.8 304.4L231 304.744L231.8 304.766C232.24 304.778 232.87 304.613 233.2 304.4C233.995 303.886 232.996 303.886 231.8 304.4ZM262.7 305.425C261.215 306.187 260 306.89 260 306.987C260 307.237 263.756 305.466 264.869 304.69C266.308 303.688 265.65 303.911 262.7 305.425ZM140 305.567C140.963 306.352 141.6 306.608 141.6 306.21C141.6 306.106 141.015 305.735 140.3 305.386L139 304.752L140 305.567ZM172.8 305.2C173.13 305.413 173.76 305.578 174.2 305.566L175 305.544L174.2 305.2C173.004 304.686 172.005 304.686 172.8 305.2ZM228.6 305.2L227.8 305.544L228.6 305.566C229.04 305.578 229.67 305.413 230 305.2C230.795 304.686 229.796 304.686 228.6 305.2ZM175.8 306C176.24 306.189 176.96 306.344 177.4 306.344H178.2L177.4 306C176.96 305.811 176.24 305.656 175.8 305.656H175L175.8 306ZM225.421 305.961C224.654 306.261 224.654 306.268 225.433 306.472C225.868 306.586 226.45 306.436 226.728 306.139C227.312 305.514 226.757 305.438 225.421 305.961ZM142 306.599C142 306.865 149.249 310.485 149.426 310.307C149.504 310.229 147.866 309.319 145.784 308.285C143.703 307.251 142 306.492 142 306.599ZM179.6 306.8C180.15 306.976 181.14 307.117 181.8 307.113L183 307.105L181.8 306.8C181.14 306.632 180.15 306.491 179.6 306.487L178.6 306.48L179.6 306.8ZM222.176 306.987C221.59 307.431 221.547 307.575 222 307.575C222.33 307.575 222.949 307.31 223.376 306.987C223.963 306.544 224.006 306.4 223.553 306.4C223.223 306.4 222.604 306.664 222.176 306.987ZM184.8 307.62C185.79 307.797 187.23 307.933 188 307.924L189.4 307.908L187.8 307.577C186.92 307.395 185.48 307.258 184.6 307.273L183 307.3L184.8 307.62ZM216.6 307.6L215 307.886L216.6 307.896C217.48 307.901 218.74 307.768 219.4 307.6L220.6 307.295L219.4 307.304C218.74 307.309 217.48 307.442 216.6 307.6ZM256.489 308.584C254.9 309.346 253.6 310.059 253.6 310.169C253.6 310.376 259.125 307.808 259.513 307.42C259.949 306.984 259.331 307.222 256.489 308.584ZM192.4 308.433C195.555 308.992 211.476 309.035 213.2 308.488C214.329 308.13 213.864 308.098 210.8 308.322C205.986 308.674 201.528 308.674 195.2 308.321C191.434 308.111 190.743 308.139 192.4 308.433ZM251.2 311.2C250.43 311.622 249.913 311.974 250.051 311.983C250.465 312.011 253.2 310.805 253.2 310.595C253.2 310.246 252.625 310.42 251.2 311.2ZM152.4 311.353C152.4 311.644 156.851 313.683 157.051 313.483C157.161 313.372 156.261 312.814 155.05 312.241C152.878 311.213 152.4 311.053 152.4 311.353ZM158.2 314C158.64 314.189 159.27 314.344 159.6 314.344C159.978 314.344 159.904 314.217 159.4 314C158.96 313.811 158.33 313.656 158 313.656C157.622 313.656 157.696 313.783 158.2 314ZM240.089 315.065C238.19 316 238.682 316.061 241.207 315.202C242.677 314.702 243.07 314.45 242.4 314.437C241.85 314.427 240.81 314.709 240.089 315.065ZM165.6 316.382C165.93 316.605 166.545 316.791 166.967 316.794C167.99 316.802 167.671 316.573 166.2 316.244C165.324 316.048 165.162 316.085 165.6 316.382ZM236.6 316.4C236.096 316.617 236.022 316.744 236.4 316.744C236.73 316.744 237.36 316.589 237.8 316.4C238.304 316.183 238.378 316.056 238 316.056C237.67 316.056 237.04 316.211 236.6 316.4ZM168.4 316.923C168.4 317.04 169.165 317.316 170.1 317.538C171.035 317.759 172.25 318.054 172.8 318.192C173.498 318.368 173.406 318.261 172.495 317.839C171.073 317.18 168.4 316.582 168.4 316.923ZM233 317.2L232.2 317.544H233C233.44 317.544 234.16 317.389 234.6 317.2L235.4 316.856H234.6C234.16 316.856 233.44 317.011 233 317.2ZM228.227 317.896C227.362 317.984 226.282 318.333 225.827 318.67C225.032 319.26 225.046 319.274 226.2 319.024C226.86 318.88 228.3 318.576 229.4 318.346C232.732 317.652 232.284 317.48 228.227 317.896ZM174.46 318.593C174.577 318.71 175.916 318.981 177.436 319.196C178.956 319.41 180.74 319.679 181.4 319.794L182.6 320.003L181.4 319.456C180.247 318.93 174.023 318.156 174.46 318.593ZM221.4 319.6C220.322 319.874 220.302 319.906 221.2 319.913C221.75 319.917 222.65 319.776 223.2 319.6C224.544 319.169 223.092 319.169 221.4 319.6ZM185.8 320.354C186.957 320.833 192.518 321.25 193.06 320.898C193.314 320.734 192.594 320.588 191.46 320.573C190.327 320.558 188.41 320.428 187.2 320.284C185.927 320.133 185.337 320.162 185.8 320.354ZM215.6 320.4L214.2 320.695L215.8 320.707C216.68 320.715 217.85 320.576 218.4 320.4C219.769 319.962 217.683 319.962 215.6 320.4ZM197.921 321.099C200.188 321.17 203.788 321.17 205.921 321.098C208.055 321.026 206.2 320.968 201.8 320.968C197.4 320.968 195.655 321.027 197.921 321.099Z" fill="#858CAC"/>
</g>
<defs>
<clipPath id="clip0_9_545">
<rect width="400" height="400" fill="white"/>
</clipPath>
</defs>
</svg>
